<svg width="26" height="26" viewBox="0 0 26 26" fill="none" xmlns="http://www.w3.org/2000/svg">
<rect width="26" height="26" rx="4" fill="#F3F0FF"/>
<path d="M8.5 6C8.63261 6 8.75979 6.05268 8.85355 6.14645C8.94732 6.24021 9 6.36739 9 6.5V9.5C8.99984 9.81033 9.09593 10.1131 9.27503 10.3665C9.45413 10.6199 9.70742 10.8116 10 10.915V6.5C10 6.36739 10.0527 6.24021 10.1464 6.14645C10.2402 6.05268 10.3674 6 10.5 6C10.6326 6 10.7598 6.05268 10.8536 6.14645C10.9473 6.24021 11 6.36739 11 6.5V10.915C11.2926 10.8116 11.5459 10.6199 11.725 10.3665C11.9041 10.1131 12.0002 9.81033 12 9.5V6.5C12 6.36739 12.0527 6.24021 12.1464 6.14645C12.2402 6.05268 12.3674 6 12.5 6C12.6326 6 12.7598 6.05268 12.8536 6.14645C12.9473 6.24021 13 6.36739 13 6.5V9.5C13.0001 10.0763 12.8011 10.635 12.4367 11.0815C12.0722 11.5279 11.5647 11.8347 11 11.95V19.5C11 19.6326 10.9473 19.7598 10.8536 19.8536C10.7598 19.9473 10.6326 20 10.5 20C10.3674 20 10.2402 19.9473 10.1464 19.8536C10.0527 19.7598 10 19.6326 10 19.5V11.95C9.43532 11.8347 8.9278 11.5279 8.56335 11.0815C8.19889 10.635 7.99988 10.0763 8 9.5V6.5C8 6.36739 8.05268 6.24021 8.14645 6.14645C8.24021 6.05268 8.36739 6 8.5 6ZM15.479 7.479C15.638 7.319 15.817 7.196 16 7.115V12H15V8.5C15 8.163 15.174 7.783 15.479 7.479ZM16 13V19.5C16 19.6326 16.0527 19.7598 16.1464 19.8536C16.2402 19.9473 16.3674 20 16.5 20C16.6326 20 16.7598 19.9473 16.8536 19.8536C16.9473 19.7598 17 19.6326 17 19.5V6.5C17 6.36739 16.9473 6.24021 16.8536 6.14645C16.7598 6.05268 16.6326 6 16.5 6C15.837 6 15.217 6.326 14.771 6.771C14.326 7.217 14 7.837 14 8.5V12.5C14 12.6326 14.0527 12.7598 14.1464 12.8536C14.2402 12.9473 14.3674 13 14.5 13H16Z" fill="#7950F2"/>
</svg>
