<svg width="26" height="26" viewBox="0 0 26 26" fill="none" xmlns="http://www.w3.org/2000/svg">
<rect width="26" height="26" rx="4" fill="#EBFBEE"/>
<path d="M9.75 12.5C9.89834 12.5 10.0433 12.544 10.1667 12.6264C10.29 12.7088 10.3861 12.8259 10.4429 12.963C10.4997 13.1 10.5145 13.2508 10.4856 13.3963C10.4567 13.5418 10.3852 13.6754 10.2803 13.7803C10.1754 13.8852 10.0418 13.9567 9.89632 13.9856C9.75083 14.0145 9.60003 13.9997 9.46299 13.9429C9.32594 13.8861 9.20881 13.79 9.1264 13.6667C9.04399 13.5433 9 13.3983 9 13.25C9 13.0511 9.07902 12.8603 9.21967 12.7197C9.36032 12.579 9.55109 12.5 9.75 12.5ZM9.75 11.5C9.40388 11.5 9.06554 11.6026 8.77775 11.7949C8.48997 11.9872 8.26566 12.2605 8.13321 12.5803C8.00076 12.9001 7.9661 13.2519 8.03363 13.5914C8.10115 13.9309 8.26782 14.2427 8.51256 14.4874C8.75731 14.7322 9.06913 14.8989 9.40859 14.9664C9.74806 15.0339 10.0999 14.9992 10.4197 14.8668C10.7395 14.7343 11.0128 14.51 11.2051 14.2222C11.3974 13.9345 11.5 13.5961 11.5 13.25C11.5 12.7859 11.3156 12.3408 10.9874 12.0126C10.6592 11.6844 10.2141 11.5 9.75 11.5Z" fill="#40C057"/>
<path d="M17.5 12H13.5C13.2348 12 12.9804 12.1054 12.7929 12.2929C12.6054 12.4804 12.5 12.7348 12.5 13V16H7V10.3L13 7.07L19.265 10.44L19.735 9.56L13.235 6.06C13.1627 6.02148 13.082 6.00134 13 6.00134C12.918 6.00134 12.8373 6.02148 12.765 6.06L6.265 9.56C6.18516 9.60251 6.11835 9.66589 6.07168 9.74337C6.02502 9.82086 6.00024 9.90955 6 10V20H7V17H19V20H20V14.5C20 13.837 19.7366 13.2011 19.2678 12.7322C18.7989 12.2634 18.163 12 17.5 12ZM13.5 16V13H17.5C17.8978 13 18.2794 13.158 18.5607 13.4393C18.842 13.7206 19 14.1022 19 14.5V16H13.5Z" fill="#40C057"/>
</svg>
