<svg xmlns="http://www.w3.org/2000/svg" xmlns:xlink="http://www.w3.org/1999/xlink" viewBox="0 0 1910.87 470.84"><defs><style>.cls-1{fill:url(#linear-gradient);}.cls-2{fill:#21093d;}.cls-3{fill:url(#linear-gradient-2);}</style><linearGradient id="linear-gradient" x1="10623.82" y1="115.28" x2="11035.34" y2="115.28" gradientTransform="matrix(-1, 0, 0, 1, 11159.24, 0)" gradientUnits="userSpaceOnUse"><stop offset="0" stop-color="#ee7235"/><stop offset="0.18" stop-color="#ef7735"/><stop offset="0.4" stop-color="#f08734"/><stop offset="0.65" stop-color="#f3a033"/><stop offset="0.91" stop-color="#f7c432"/><stop offset="1" stop-color="#f9d131"/></linearGradient><linearGradient id="linear-gradient-2" x1="10503.63" y1="325.75" x2="11159.24" y2="325.75" gradientTransform="matrix(-1, 0, 0, 1, 11159.24, 0)" gradientUnits="userSpaceOnUse"><stop offset="0" stop-color="#1070a4"/><stop offset="0.2" stop-color="#1275a9"/><stop offset="0.44" stop-color="#1785b6"/><stop offset="0.71" stop-color="#1f9ecd"/><stop offset="1" stop-color="#2ac2ec"/><stop offset="1" stop-color="#2ac2ec"/></linearGradient></defs><title>Asset 1</title><g id="Layer_2" data-name="Layer 2"><g id="Layer_1-2" data-name="Layer 1"><path class="cls-1" d="M123.9,168.42C142.23,72.5,226.54,0,327.81,0,442.47,0,535.42,93,535.42,207.61a211.78,211.78,0,0,1-1.26,22.94c-59.39-21.71-151.69-46.69-220.94-54.74C252.45,168.76,176.7,165.31,123.9,168.42Z"/><path class="cls-2" d="M232.41,328s-1.5-12-11.32-18.1-21.13-3.78-27.54-1.16l7.08,3.37a28.3,28.3,0,0,1,6-1.42s-3.24,1.24-4,2.48a18.9,18.9,0,0,0,4.71,1.89,6.4,6.4,0,0,1,4.62-2s-2.86,2-3.23,3.09l3.83,2.38a12.52,12.52,0,0,1,6.28-1.6s-3.95,2.27-4,3a25.27,25.27,0,0,1,3.1,2s2-2.33,6.13-1c0,0-3.23,1.14-3.88,2.22C220.21,323.11,228.18,324.93,232.41,328Z"/><path class="cls-2" d="M232.6,327.89s-7.33-9.66-4.55-20.86,12.47-17.47,18.89-20.08l-2.71,7.37a29,29,0,0,0-5.31,3.19s3.19-1.38,4.57-1a19.42,19.42,0,0,1-2.05,4.65,6.38,6.38,0,0,0-4.71,1.78s3.43-.58,4.46-.05l-1.07,4.38a12.53,12.53,0,0,0-5.62,3.24s4.42-1.13,5-.69a23.59,23.59,0,0,0-.81,3.61s-3.09-.23-5.08,3.57c0,0,3.11-1.44,4.32-1.12C237.93,315.89,233.51,322.76,232.6,327.89Z"/><path class="cls-2" d="M232.5,328.16s-11.79-2.83-20.93,4.23-11,18.45-10.78,25.37l5.66-5.44a28.44,28.44,0,0,1,.79-6.15s0,3.48.93,4.59a19.2,19.2,0,0,0,3.42-3.75,6.45,6.45,0,0,1-.26-5s.85,3.38,1.75,4.11l3.58-2.74a12.57,12.57,0,0,1,.71-6.45s.74,4.5,1.38,4.85a24.6,24.6,0,0,1,3-2.19s-1.46-2.74,1.22-6.09c0,0-.06,3.42.72,4.41C223.66,337.87,228.17,331.05,232.5,328.16Z"/><path class="cls-2" d="M231.77,329s10-6.83,21.06-3.48,16.81,13.34,19.1,19.88l-7.22-3.08a29,29,0,0,0-2.93-5.47s1.22,3.26.76,4.62a19.05,19.05,0,0,1-4.53-2.28,6.4,6.4,0,0,0-1.54-4.8s.4,3.46-.18,4.46L252,337.55a12.54,12.54,0,0,0-2.95-5.77s.9,4.46.43,5a24.23,24.23,0,0,0-3.56-1s.39-3.07-3.3-5.25c0,0,1.27,3.18.89,4.38C243.48,334.93,236.84,330.16,231.77,329Z"/><path class="cls-2" d="M232.42,328s-8.29-6-14.24-7l-1.39,1.67-.54-2.31a23,23,0,0,0-6.71-1.21c-.38,0-.8,1.79-1,2.92a9.62,9.62,0,0,1-.73-3.11s-11.53.85-24.06,11.28c0,0,10.33,2,15.68,1.8a8.72,8.72,0,0,1-.44-2.93,8.57,8.57,0,0,0,2.39,2.64s6-.72,6.54-.57c0,0,.39-1.81.63-3a18.68,18.68,0,0,0,1,3.21l3.52-.06a16.11,16.11,0,0,1,1.22-2.31l.22,2.72a53,53,0,0,0,5.7.27l.62-2.76,1,3S231.37,327.93,232.42,328Z"/><path class="cls-2" d="M231,329.31s2.92-9.83,7.06-14.21l2.12.49-1-2.17a23.26,23.26,0,0,1,4.6-5c.31-.22,1.73.93,2.54,1.74a9.67,9.67,0,0,0-1.31-2.92s9.67-6.33,26-5.66c0,0-7,7.83-11.36,11a8.53,8.53,0,0,0-1.43-2.59,8.67,8.67,0,0,1-.29,3.54s-5.17,3-5.55,3.53l-2.3-2a19.22,19.22,0,0,1,1.16,3.17l-2.84,2.08a16.33,16.33,0,0,0-2.38-1.08l1.49,2.3a52.61,52.61,0,0,1-4.37,3.67L241,323.33l1.1,3S231.86,328.65,231,329.31Z"/><path class="cls-2" d="M231.25,328.39s9.86,2.83,14.28,6.93l-.47,2.12,2.16-1A23.22,23.22,0,0,1,252.3,341c.23.31-.92,1.74-1.71,2.55a9.88,9.88,0,0,0,2.9-1.33s6.42,9.61,5.9,25.9c0,0-7.89-6.93-11.06-11.25a8.65,8.65,0,0,0,2.58-1.46,8.5,8.5,0,0,1-3.55-.26s-3.09-5.13-3.58-5.51l2-2.31a18.76,18.76,0,0,1-3.16,1.18l-2.11-2.82a17.32,17.32,0,0,0,1.07-2.38l-2.29,1.5a53,53,0,0,1-3.71-4.33l1.79-2.18-3,1.12S231.92,329.2,231.25,328.39Z"/><path class="cls-2" d="M231.72,327.64s-7.32,7.19-9.24,12.9l1.42,1.64-2.37.16a22.89,22.89,0,0,0-2.29,6.42c-.06.37,1.63,1.09,2.72,1.42a9.5,9.5,0,0,1-3.19.21S217.71,361.91,226,376c0,0,3.62-9.86,4.34-15.17a8.65,8.65,0,0,1-3-.05,8.66,8.66,0,0,0,3-1.92s.26-6,.51-6.55L228,351.18a18.56,18.56,0,0,0,3.34-.46l.51-3.48a18,18,0,0,1-2.08-1.59l2.73.23a56.18,56.18,0,0,0,1.2-5.58l-2.62-1.06,3.15-.44S231.52,328.67,231.72,327.64Z"/><path class="cls-2" d="M233.41,328.39A127.38,127.38,0,0,0,246.1,364.8c7.37,13.53,20.38,46.91,19.07,78.54h-8.7s0-35.85-9.27-60.36c-6.69-17.66-15.19-36.28-16.27-54Z"/><path class="cls-2" d="M297.94,363s2.08-8.46,9.6-12,15.39-.92,19.75,1.48L322,354.36a20.22,20.22,0,0,0-4.19-1.52s2.22,1.16,2.63,2.1a13.73,13.73,0,0,1-3.53.95,4.6,4.6,0,0,0-3.12-1.82s1.87,1.65,2,2.47l-2.93,1.38a9,9,0,0,0-4.35-1.67s2.63,1.95,2.64,2.47a19,19,0,0,0-2.38,1.18s-1.26-1.83-4.29-1.22c0,0,2.21,1.08,2.58,1.91C307.05,360.59,301.21,361.22,297.94,363Z"/><path class="cls-2" d="M297.81,363s6-6.28,5-14.51-7.43-13.51-11.79-15.91l1.31,5.48a20.37,20.37,0,0,1,3.52,2.73s-2.16-1.25-3.18-1.09a13.62,13.62,0,0,0,1.08,3.48,4.63,4.63,0,0,1,3.21,1.67s-2.4-.7-3.18-.41l.39,3.22a9,9,0,0,1,3.74,2.78s-3.06-1.18-3.5-.91a18.68,18.68,0,0,1,.27,2.65s2.22.09,3.32,3c0,0-2.09-1.29-3-1.16C295,354,297.59,359.22,297.81,363Z"/><path class="cls-2" d="M297.86,363.16s8.65-1,14.58,4.77,6.28,14.09,5.56,19l-3.58-4.36a20.77,20.77,0,0,0,0-4.45s-.31,2.48-1.05,3.19a13.62,13.62,0,0,1-2.13-3,4.62,4.62,0,0,0,.61-3.57s-.89,2.34-1.6,2.79l-2.32-2.26a9.06,9.06,0,0,0,0-4.66s-.91,3.15-1.4,3.34a17.43,17.43,0,0,0-1.94-1.81s1.27-1.83-.36-4.44c0,0-.24,2.44-.88,3.08C303.35,370.83,300.71,365.59,297.86,363.16Z"/><path class="cls-2" d="M298.31,363.82s-6.58-5.72-14.74-4.26-13.11,8.11-15.29,12.58l5.41-1.59a20.37,20.37,0,0,1,2.54-3.65s-1.14,2.22-.93,3.23a13.92,13.92,0,0,0,3.43-1.25,4.6,4.6,0,0,1,1.51-3.3s-.59,2.44-.25,3.2l3.19-.56a9,9,0,0,1,2.59-3.87s-1,3.11-.73,3.55a18,18,0,0,1,2.62-.41s0-2.23,2.8-3.47c0,0-1.17,2.16-1,3.05C289.46,367.07,294.59,364.22,298.31,363.82Z"/><path class="cls-2" d="M297.93,363s6.43-3.61,10.75-3.8l.85,1.31.58-1.6a16.69,16.69,0,0,1,4.89-.3c.27,0,.43,1.34.44,2.16a6.7,6.7,0,0,0,.78-2.16s8.16,1.58,16.23,10.07c0,0-7.54.53-11.34,0a6.3,6.3,0,0,0,.56-2.05,6.16,6.16,0,0,1-1.93,1.68,47,47,0,0,0-4.62-.95s-.13-1.33-.2-2.17a13.5,13.5,0,0,1-1,2.21l-2.5-.35a12.75,12.75,0,0,0-.69-1.75l-.38,1.93a39.78,39.78,0,0,1-4.09-.29l-.21-2-.93,2.09S298.68,363.09,297.93,363Z"/><path class="cls-2" d="M298.8,364.1s-1.25-7.26-3.84-10.73l-1.55.17.87-1.47a16.5,16.5,0,0,0-2.85-4c-.2-.19-1.31.52-2,1a6.78,6.78,0,0,1,1.18-2s-6.37-5.33-18-6.22c0,0,4.34,6.17,7.18,8.77A6.24,6.24,0,0,1,281,348a6.06,6.06,0,0,0-.09,2.56s3.42,2.6,3.66,3l1.8-1.22a13.62,13.62,0,0,0-1.09,2.16l1.85,1.73a11.82,11.82,0,0,1,1.79-.58l-1.25,1.52a38.71,38.71,0,0,0,2.81,3L292.2,359l-1,2S298.28,363.56,298.8,364.1Z"/><path class="cls-2" d="M298.73,363.43s-7.27,1.19-10.77,3.74l.16,1.55-1.46-.89a16.57,16.57,0,0,0-4,2.82c-.19.2.51,1.32,1,2a7,7,0,0,1-2-1.2s-5.39,6.32-6.39,18c0,0,6.22-4.29,8.84-7.1a6.23,6.23,0,0,1-1.72-1.26,6.22,6.22,0,0,0,2.56.12s2.63-3.41,3-3.64l-1.21-1.81a13.79,13.79,0,0,0,2.16,1.11L290.7,375a12.72,12.72,0,0,1-.56-1.79l1.5,1.27a38.86,38.86,0,0,0,3-2.78l-1.1-1.71,2,1S298.19,364,298.73,363.43Z"/><path class="cls-2" d="M298.46,362.85s4.62,5.75,5.51,10l-1.15,1.05,1.68.31a16.64,16.64,0,0,1,1.1,4.78c0,.27-1.26.64-2.07.79a7,7,0,0,0,2.26.42s-.21,8.3-7.27,17.65c0,0-1.76-7.34-1.83-11.19a6.21,6.21,0,0,0,2.12.21,6.19,6.19,0,0,1-2-1.62s.32-4.29.19-4.72l2.1-.55a13.34,13.34,0,0,1-2.34-.61l-.07-2.53a11.85,11.85,0,0,0,1.61-1l-2-.06a39.33,39.33,0,0,1-.39-4.08l2-.54-2.21-.57S298.52,363.6,298.46,362.85Z"/><path class="cls-2" d="M297.19,363.25a91.41,91.41,0,0,1-12.11,24.91c-6.4,9-18.49,31.77-20.2,54.45l6.21.73s3-25.58,11.68-42.29c6.25-12.05,13.88-24.62,16.14-37.16Z"/><path class="cls-2" d="M275.31,451.59a43.65,43.65,0,0,1,11.11-4.2s-6.29-1.53-11.88,1.12c0,0,3.11-6.85,7.36-8.66,0,0-6.21,1.53-9.3,6.71,0,0,1-6.85,4.32-11.47a19.21,19.21,0,0,0-7.83,7H260a15.47,15.47,0,0,0-8.81-7s3.49,1.82,4.05,8.25c0,0-4.33-3.49-8.38-1.68,0,0,5.17,2.1,6.71,4.76,0,0-7.69-3.22-11.47-.14,0,0,8.25,1.11,11.33,5.31Z"/><path class="cls-3" d="M73,189.21c11.31-3.72,29.17-6.11,50.92-7.39,52.8-3.11,128.55.33,189.32,7.39,69.25,8,161.55,33,220.93,54.74,14.19,5.19,26.52,10.19,36.19,14.73,50.09,23.52,39.3,44,70.57,96.87s5.26,51.34-10.1,51.61-8.16,5.61-8.16,5.61c4.15,5,0,10,0,10-10,12.18-74.18,10.52-98.53,8.31s-42.63,1.1-55.91,10.51.83,9.14-54,24.08-177.69-7.47-177.69-7.47c-10.34-3.8,11.63-20,38.37-36.41S333.47,388.7,342,384.33c17-8.72,69.19-37.09,101.3-53.69s16.6-37.09,5.81-40.41-8-12.46,0-16.88,11.07-8.58,4.15-12.46-106.56-12.18-184.33,2.49-68.08,2.22-68.08,2.22c6.09-24.36-10.52-16.61-39.86-25.47-8.64-2.61-23.27-3.62-40.25-4-40.64-.89-94.89,2-113.63-4.3C-19.46,223,34.23,201.94,73,189.21Z"/><path class="cls-2" d="M1166.72,271.32c-13.78,32.83-26.87,64-40,95.17-.85,2-1.35,4.26-2.55,6a50,50,0,0,1-5.17,5.66c-1.86-1.78-4.46-3.22-5.47-5.39-9.18-19.57-18.07-39.28-27.06-58.94-8.08-17.67-16.09-35.37-24.31-53-5-10.79-11.93-19.87-24.52-23.25,24.47-7.19,45.31,1.93,55.78,24.45,11,23.58,21.67,47.27,32.51,70.91,1.28,2.81,2.67,5.57,4.83,10.06,11-26.52,21.52-51.4,31.63-76.44.85-2.1-.31-5.39-1.31-7.81-3-7.14-6.31-14.12-10.21-22.71,10.1,0,18.82-.5,27.42.32,2.35.23,5.06,4.09,6.35,6.87,13.88,29.82,27.52,59.76,41.23,89.66,1.29,2.8,2.66,5.57,4.81,10.07l24-57.09c6.06-14.44,12-28.92,18.28-43.29,1.14-2.62,3.36-4.77,5.08-7.14l2.3,1.29a57.71,57.71,0,0,1-1.89,6.54q-26.68,63.72-53.57,127.34c-1.19,2.81-3.8,5-5.75,7.52-2.12-2.33-5-4.31-6.25-7-13.88-29.83-27.51-59.77-41.22-89.68C1170.37,278.66,1169,275.89,1166.72,271.32Z"/><path class="cls-2" d="M1650,375.55h-29.68v-27l-2.07-.88c-2.1,2.74-4.17,5.5-6.3,8.21-22.83,29.14-54.79,30.09-77.94,1.14-25.91-32.41-24.92-90.21,21-115.69,21.38-11.87,42.69-9.91,64,3.21.4-1.82.65-2.91.88-4s.46-2.37.75-3.9H1650Zm-30.12-79.05c0-12.22.3-24.45-.19-36.65-.13-3.31-1.71-7.61-4.15-9.61-17.76-14.53-48.88-15.32-61.37,11.5-11.13,23.9-11.28,48.87-2.7,73.19,8.68,24.62,39.14,30.88,58.93,13.54,6.46-5.65,10.46-11.71,9.68-21C1619.19,317.23,1619.85,306.83,1619.85,296.5Z"/><path class="cls-2" d="M1830.6,375.57h-29c0-3.51,0-6.82,0-10.13,0-27.63.63-55.27-.34-82.86a72.22,72.22,0,0,0-7.38-29.52c-6.95-13.59-21.31-16.82-33.66-7.9-9.52,6.88-17.59,15.92-25.62,24.63-2.15,2.33-2.49,7-2.51,10.54-.19,28.25-.11,56.5-.11,84.75v10.5h-30.36V365.41q0-49,0-97.93c0-16.32-5.35-24-20.42-31.45h50.51V263.8c4.69-4.63,7.88-7.8,11.1-10.94C1756,240,1771.34,232.25,1790.19,234c23.49,2.16,40.08,18.09,41.1,42.59,1.34,32.27.37,64.63.35,96.95C1831.64,374,1831.12,374.57,1830.6,375.57Z"/><path class="cls-2" d="M707.24,375.26c1-3.4,1.74-6.86,2.88-10.2q26.75-78.19,53.57-156.36c.61-1.77,1.27-3.54,1.82-5.33,4.47-14.62.71-22.47-14.82-28.31,10.17,0,18.94-1,27.37.23,13.9,2.08,21.45,12.21,25.84,24.64C812.13,223.26,820,246.7,828,270.11q16,47.13,31.94,94.28c1.17,3.48,2,7.08,3.25,11.63-10.67,0-20.39.5-30-.34-2.43-.21-5.53-4.3-6.56-7.23Q811.88,326.36,797.87,284c-1.84-5.58-4.32-7.95-10.54-7.63-11.28.58-22.62.48-33.91,0-5.64-.22-8.19,1.71-9.95,7-9.32,28.24-19,56.37-28.64,84.49-1,3-3.08,5.74-4.66,8.59Zm63.34-170.7c-7.85,23.1-15,44.22-22.31,65.68H792.9C785.51,248.49,778.4,227.59,770.58,204.56Z"/><path class="cls-2" d="M882.54,305.78c-.46-39.16,32.44-71.28,73.93-72.17,41.19-.88,75.53,31.87,75.87,72.38.32,38.89-33.4,71.74-74.13,72.22C916.38,378.7,883,346.78,882.54,305.78Zm119.36,1.74c-.84-20.21-4.47-39.09-18.38-54.35-15.48-17-36-17.08-51.8-.58-24.91,26-24.89,80.41,0,106.45,15.16,15.83,35.3,16.17,50.55.5C996.45,345,1000.9,326.67,1001.9,307.52Z"/><path class="cls-2" d="M1172.68,159.16c-8.73-12.15-8.8-29.65-1.72-45.59,11.78-26.52,36-37.94,68-32.25,27.19,4.83,49.57,19.31,70.78,35.7,24.09,18.62,46.56,39.88,75.38,51a150.84,150.84,0,0,0,45.49,10.11c29.15,1.57,58.45.41,87.68.54,2.82,0,5.64,1.12,8.46,1.72l-.6,3.55H1465v75h-30.64V185.46c-17.28-2.58-33.58-4-49.38-7.56-35.68-8.1-63.92-29.51-91.49-52.3-14.92-12.33-30.53-24.4-47.46-33.57-17.6-9.53-37.42-10.08-54.61,2.22-16.55,11.85-23.13,29.2-21.53,49.44C1170.22,148.1,1171.43,152.45,1172.68,159.16Z"/><path class="cls-2" d="M1905.65,375.56h-29.39c-.18-3.37-.49-6.69-.5-10,0-32.27-.3-64.55.1-96.82.19-15.63-5.22-26.73-20.83-32.12h50.62Z"/><path class="cls-2" d="M1434.8,266.13c21.3-3,30,4.19,30.08,24.83.08,27.89,0,55.79,0,84.38h-30.1Z"/><path class="cls-2" d="M1910.87,196.28c-.16,10.27-10.26,19.93-20.39,19.49-10.56-.45-19.46-10.15-19-20.75s9-18.58,19.83-18.54A19.44,19.44,0,0,1,1910.87,196.28Z"/></g></g></svg>