<svg xmlns="http://www.w3.org/2000/svg" xmlns:xlink="http://www.w3.org/1999/xlink" viewBox="0 0 1350.06 1317.51"><defs><style>.cls-1{fill:url(#linear-gradient);}.cls-2{fill:#21093d;}.cls-3{fill:url(#linear-gradient-2);}</style><linearGradient id="linear-gradient" x1="10650.32" y1="237.38" x2="11497.74" y2="237.38" gradientTransform="matrix(-1, 0, 0, 1, 11752.88, 0)" gradientUnits="userSpaceOnUse"><stop offset="0" stop-color="#ee7235"/><stop offset="0.18" stop-color="#ef7735"/><stop offset="0.4" stop-color="#f08734"/><stop offset="0.65" stop-color="#f3a033"/><stop offset="0.91" stop-color="#f7c432"/><stop offset="1" stop-color="#f9d131"/></linearGradient><linearGradient id="linear-gradient-2" x1="10402.82" y1="670.8" x2="11752.88" y2="670.8" gradientTransform="matrix(-1, 0, 0, 1, 11752.88, 0)" gradientUnits="userSpaceOnUse"><stop offset="0" stop-color="#1070a4"/><stop offset="0.2" stop-color="#1275a9"/><stop offset="0.44" stop-color="#1785b6"/><stop offset="0.71" stop-color="#1f9ecd"/><stop offset="1" stop-color="#2ac2ec"/><stop offset="1" stop-color="#2ac2ec"/></linearGradient></defs><title>Asset 2</title><g id="Layer_2" data-name="Layer 2"><g id="Layer_1-2" data-name="Layer 1"><path class="cls-1" d="M255.14,346.82C292.89,149.3,466.51,0,675,0c236.12,0,427.53,191.41,427.53,427.53a433.37,433.37,0,0,1-2.61,47.23C977.67,430.06,787.59,378.6,645,362,519.86,347.51,363.87,340.41,255.14,346.82Z"/><path class="cls-2" d="M478.59,675.37s-3.1-24.79-23.32-37.28-43.5-7.78-56.71-2.4l14.59,7s7.75-2.71,12.42-2.94c0,0-6.69,2.56-8.16,5.12,0,0,5.46,3.1,9.7,3.89,0,0,3.83-4.36,9.52-4.15,0,0-5.9,4.08-6.66,6.35l7.88,4.9a25.91,25.91,0,0,1,12.94-3.3s-8.13,4.69-8.34,6.17a51.51,51.51,0,0,1,6.38,4.15s4.21-4.8,12.61-2.06c0,0-6.63,2.36-8,4.59C453.47,665.37,469.88,669.11,478.59,675.37Z"/><path class="cls-2" d="M479,675.2s-15.11-19.89-9.39-43,25.69-36,38.9-41.36l-5.58,15.18s-7.44,3.47-10.93,6.58c0,0,6.57-2.85,9.41-2,0,0-1.74,6-4.22,9.56,0,0-5.79-.44-9.71,3.68,0,0,7.07-1.21,9.2-.11l-2.21,9a25.82,25.82,0,0,0-11.56,6.68S492,637.1,493.18,638a51.82,51.82,0,0,0-1.67,7.43s-6.36-.49-10.45,7.34c0,0,6.39-2.95,8.9-2.29C490,650.5,480.85,664.64,479,675.2Z"/><path class="cls-2" d="M478.78,675.76s-24.3-5.82-43.1,8.71-22.59,38-22.2,52.25l11.64-11.22s.19-8.21,1.63-12.66c0,0,0,7.16,1.92,9.45,0,0,4.82-4,7.05-7.72,0,0-2.73-5.12-.54-10.37,0,0,1.75,7,3.6,8.47l7.37-5.65a25.85,25.85,0,0,1,1.46-13.28s1.52,9.27,2.84,10a52.57,52.57,0,0,1,6.13-4.52s-3-5.62,2.51-12.52c0,0-.13,7,1.49,9.07C460.58,695.75,469.86,681.71,478.78,675.76Z"/><path class="cls-2" d="M477.26,677.48s20.64-14.08,43.38-7.19,34.62,27.48,39.32,41l-14.87-6.35s-3.09-7.6-6-11.25c0,0,2.51,6.71,1.57,9.51,0,0-5.94-2-9.34-4.71,0,0,.74-5.75-3.18-9.88,0,0,.84,7.13-.36,9.2l-8.89-2.67a25.91,25.91,0,0,0-6.09-11.89s1.87,9.2.89,10.34a50.92,50.92,0,0,0-7.33-2s.81-6.33-6.8-10.82c0,0,2.62,6.54,1.84,9C501.38,689.69,487.71,679.87,477.26,677.48Z"/><path class="cls-2" d="M478.6,675.34s-17.07-12.43-29.32-14.41l-2.85,3.44-1.12-4.76S438,657,431.49,657.13c-.78,0-1.66,3.68-2,6,0,0-1.62-3.95-1.5-6.41,0,0-23.75,1.75-49.54,23.23,0,0,21.26,4,32.28,3.7a17.66,17.66,0,0,1-.9-6s2.32,4,4.92,5.44c0,0,12.24-1.49,13.48-1.17,0,0,.8-3.74,1.28-6.11,0,0,1.27,5.42,2.08,6.62l7.24-.14a35.31,35.31,0,0,1,2.53-4.75l.45,5.62a112.34,112.34,0,0,0,11.74.54l1.27-5.67,2,6.24S476.45,675.28,478.6,675.34Z"/><path class="cls-2" d="M475.77,678.12s6-20.24,14.54-29.26l4.36,1-2-4.46s4.27-6.5,9.47-10.37c.62-.47,3.55,1.92,5.22,3.57,0,0-1.12-4.12-2.7-6,0,0,19.93-13,53.46-11.65,0,0-14.43,16.12-23.39,22.55a17.59,17.59,0,0,0-3-5.33s.57,4.55-.6,7.3c0,0-10.63,6.26-11.42,7.26,0,0-2.91-2.48-4.73-4.07,0,0,2.29,5.08,2.38,6.52l-5.84,4.3a34.23,34.23,0,0,0-4.9-2.24l3.06,4.73a110.26,110.26,0,0,1-9,7.56l-4.46-3.73,2.25,6.14S477.45,676.77,475.77,678.12Z"/><path class="cls-2" d="M476.2,676.24s20.3,5.81,29.4,14.25l-1,4.37,4.44-2.05s6.54,4.21,10.46,9.37c.47.62-1.89,3.57-3.52,5.26,0,0,4.11-1.16,6-2.76,0,0,13.23,19.8,12.16,53.35,0,0-16.25-14.28-22.77-23.17a17.59,17.59,0,0,0,5.3-3s-4.55.61-7.31-.53c0,0-6.35-10.57-7.37-11.35,0,0,2.46-2.93,4-4.77,0,0-5.06,2.34-6.5,2.44l-4.35-5.8a34.94,34.94,0,0,0,2.2-4.91l-4.71,3.1A111.67,111.67,0,0,1,485,701.1l3.69-4.49-6.12,2.31S477.57,677.9,476.2,676.24Z"/><path class="cls-2" d="M477.16,674.69s-15.06,14.8-19,26.56l2.93,3.38-4.89.32s-3.73,6.82-4.71,13.22c-.12.78,3.36,2.24,5.6,2.94,0,0-4.16.95-6.57.43,0,0-2.17,23.71,14.78,52.68,0,0,7.47-20.3,9-31.23a17.64,17.64,0,0,1-6.1-.11s4.29-1.63,6.17-4c0,0,.54-12.33,1.06-13.49l-5.81-2.27s5.55-.36,6.87-1l1.05-7.17a35.34,35.34,0,0,1-4.27-3.27l5.61.47a108.94,108.94,0,0,0,2.46-11.49l-5.38-2.19,6.48-.89S476.75,676.8,477.16,674.69Z"/><path class="cls-2" d="M480.64,676.24s6,38,26.13,75c15.18,27.88,42,96.61,39.27,161.74H528.13s0-73.82-19.1-124.29c-13.76-36.38-31.27-74.72-33.5-111.17Z"/><path class="cls-2" d="M613.52,747.56s4.29-17.43,19.77-24.64S665,721,674,726l-11,3.73s-5.31-2.58-8.62-3.13c0,0,4.56,2.39,5.4,4.34a28.4,28.4,0,0,1-7.26,2,9.49,9.49,0,0,0-6.44-3.77s3.87,3.41,4.22,5.1l-6,2.84a18.53,18.53,0,0,0-9-3.45s5.41,4,5.43,5.11a36,36,0,0,0-4.9,2.42s-2.6-3.77-8.83-2.52c0,0,4.54,2.24,5.31,3.93C632.29,742.53,620.26,743.83,613.52,747.56Z"/><path class="cls-2" d="M613.25,747.41s12.45-12.93,10.3-29.86-15.3-27.83-24.28-32.78l2.71,11.3s5,3.1,7.25,5.61c0,0-4.45-2.58-6.55-2.25a28.51,28.51,0,0,0,2.21,7.18,9.49,9.49,0,0,1,6.62,3.44s-5-1.45-6.56-.85l.82,6.62a18.58,18.58,0,0,1,7.69,5.74s-6.29-2.43-7.21-1.87a37.28,37.28,0,0,1,.56,5.44s4.58.18,6.85,6.11c0,0-4.32-2.64-6.17-2.38C607.49,728.86,612.81,739.72,613.25,747.41Z"/><path class="cls-2" d="M613.36,747.83s17.82-2.12,30,9.83,12.93,29,11.46,39.15l-7.37-9s.55-5.87-.1-9.16c0,0-.63,5.1-2.16,6.58a28.5,28.5,0,0,1-4.39-6.11,9.48,9.48,0,0,0,1.26-7.35s-1.83,4.82-3.28,5.74L634,772.87a18.62,18.62,0,0,0,.07-9.6s-1.87,6.49-2.87,6.89a36.32,36.32,0,0,0-4-3.74s2.62-3.76-.74-9.15c0,0-.5,5-1.83,6.35C624.66,763.62,619.22,752.82,613.36,747.83Z"/><path class="cls-2" d="M614.29,749.18s-13.54-11.78-30.35-8.77-27,16.7-31.5,25.92l11.15-3.28s2.84-5.17,5.24-7.52c0,0-2.36,4.57-1.92,6.65a28.31,28.31,0,0,0,7.06-2.57,9.49,9.49,0,0,1,3.1-6.79s-1.2,5-.52,6.59l6.57-1.15a18.64,18.64,0,0,1,5.34-8s-2.1,6.41-1.5,7.3a37.8,37.8,0,0,1,5.41-.84s0-4.58,5.76-7.14c0,0-2.42,4.44-2.07,6.27C596.06,755.87,606.63,750,614.29,749.18Z"/><path class="cls-2" d="M613.51,747.54s13.23-7.43,22.14-7.82l1.75,2.7,1.19-3.31a34,34,0,0,1,10.07-.61c.56.07.88,2.77.91,4.46a14.36,14.36,0,0,0,1.61-4.45s16.8,3.24,33.4,20.74c0,0-15.51,1.09-23.34-.07a12.55,12.55,0,0,0,1.14-4.23,12.6,12.6,0,0,1-4,3.46s-8.61-2.09-9.52-2c0,0-.26-2.74-.41-4.47a27.58,27.58,0,0,1-2,4.55l-5.16-.7a25.27,25.27,0,0,0-1.41-3.61l-.79,4a77.48,77.48,0,0,1-8.42-.6l-.43-4.15-1.92,4.29S615.06,747.68,613.51,747.54Z"/><path class="cls-2" d="M615.3,749.76s-2.59-14.94-7.92-22.1l-3.19.35,1.81-3a34.11,34.11,0,0,0-5.89-8.2c-.41-.38-2.69,1.07-4,2.11a14.34,14.34,0,0,1,2.44-4s-13.13-11-37.18-12.81c0,0,8.95,12.72,14.8,18.06a12.75,12.75,0,0,1,2.55-3.56,12.78,12.78,0,0,0-.18,5.26s7.06,5.36,7.54,6.14c0,0,2.28-1.52,3.72-2.5a27.93,27.93,0,0,0-2.25,4.45l3.81,3.56a25.14,25.14,0,0,1,3.68-1.19l-2.58,3.12a80.17,80.17,0,0,0,5.79,6.15l3.49-2.29-2.12,4.2S614.22,748.66,615.3,749.76Z"/><path class="cls-2" d="M615.15,748.38s-15,2.45-22.17,7.71l.32,3.2-3-1.84a34,34,0,0,0-8.25,5.81c-.39.4,1,2.71,2.07,4a14.31,14.31,0,0,1-4-2.47s-11.1,13-13.16,37c0,0,12.8-8.83,18.2-14.63a12.53,12.53,0,0,1-3.53-2.59,12.71,12.71,0,0,0,5.26.24s5.42-7,6.21-7.48c0,0-1.51-2.3-2.47-3.74A27.22,27.22,0,0,0,595,776l3.59-3.77a24.62,24.62,0,0,1-1.15-3.69l3.09,2.6a79.24,79.24,0,0,0,6.21-5.72l-2.26-3.52,4.18,2.16S614,749.45,615.15,748.38Z"/><path class="cls-2" d="M614.6,747.2S624.11,759,626,767.75l-2.37,2.16,3.45.64a34.08,34.08,0,0,1,2.26,9.84c0,.56-2.59,1.31-4.25,1.62a14.37,14.37,0,0,0,4.66.86s-.45,17.1-15,36.36c0,0-3.62-15.12-3.76-23a12.68,12.68,0,0,0,4.36.43s-2.93-1.53-4.07-3.34c0,0,.65-8.84.37-9.71,0,0,2.66-.71,4.34-1.14a27.25,27.25,0,0,1-4.82-1.26L611,776a25,25,0,0,0,3.32-2l-4-.13a79.7,79.7,0,0,1-.79-8.41l4-1.11L609,763.16S614.72,748.74,614.6,747.2Z"/><path class="cls-2" d="M612,748s-7.51,26.65-24.94,51.3c-13.18,18.62-38.07,65.42-41.6,112.12l12.78,1.51s6.2-52.68,24.06-87.09c12.87-24.81,28.59-50.7,33.24-76.53Z"/><path class="cls-2" d="M566.93,929.92s11.94-6.62,22.88-8.63c0,0-12.95-3.17-24.46,2.3,0,0,6.39-14.1,15.14-17.85,0,0-12.79,3.17-19.15,13.82,0,0,2-14.1,8.9-23.6,0,0-10.36,4.6-16.12,14.39H535.41s-5.76-10.94-18.13-14.39c0,0,7.19,3.74,8.34,17,0,0-8.92-7.2-17.27-3.45,0,0,10.65,4.31,13.82,9.78,0,0-15.83-6.62-23.6-.28,0,0,17,2.3,23.31,10.93Z"/><path class="cls-3" d="M150.28,389.62c23.28-7.65,60.07-12.57,104.86-15.21,108.73-6.41,264.72.68,389.84,15.21,142.61,16.56,332.69,68,455,112.73,29.22,10.68,54.61,21,74.5,30.33,103.16,48.44,80.93,90.62,145.33,199.47s10.83,105.73-20.8,106.3S1282.17,850,1282.17,850c8.55,10.26,0,20.66,0,20.66-20.52,25.07-152.74,21.65-202.9,17.09S991.5,890,964.15,909.4,965.85,928.21,853,959s-365.9-15.39-365.9-15.39c-21.29-7.83,23.95-41.23,79-75,55.33-33.93,120.58-68.19,138.15-77.19,35-18,142.48-76.37,208.59-110.57s34.2-76.37,12-83.21-16.53-25.65,0-34.77,22.8-17.66,8.55-25.64-219.43-25.08-379.58,5.13-140.2,4.55-140.2,4.55c12.54-50.15-21.66-34.19-82.07-52.43-17.8-5.37-47.91-7.47-82.88-8.24-83.7-1.83-195.41,4-234-8.86C-40.08,459.16,70.49,415.84,150.28,389.62Z"/><path class="cls-2" d="M502.74,1210.57c-13.78,32.82-26.86,64-39.94,95.16-.85,2-1.36,4.27-2.56,6-1.41,2.1-3.42,3.79-5.17,5.66-1.86-1.78-4.45-3.21-5.47-5.39-9.17-19.57-18.06-39.28-27.05-58.94-8.08-17.67-16.1-35.36-24.32-53-5-10.8-11.93-19.88-24.52-23.26,24.48-7.19,45.31,1.93,55.78,24.45,11,23.58,21.68,47.28,32.51,70.92,1.29,2.8,2.67,5.56,4.84,10,11-26.51,21.52-51.4,31.63-76.43.85-2.11-.32-5.4-1.32-7.81-3-7.15-6.3-14.13-10.2-22.72,10.1,0,18.82-.5,27.41.33,2.35.22,5.06,4.08,6.35,6.86,13.89,29.82,27.52,59.76,41.24,89.66,1.28,2.81,2.65,5.57,4.81,10.07,8.42-20.06,16.18-38.58,24-57.09,6.06-14.44,12-28.92,18.27-43.29,1.14-2.62,3.36-4.77,5.08-7.14l2.3,1.29a57.08,57.08,0,0,1-1.88,6.54q-26.68,63.72-53.57,127.34c-1.19,2.82-3.8,5-5.75,7.52-2.12-2.33-5-4.31-6.25-7-13.88-29.83-27.51-59.77-41.23-89.68C506.39,1217.9,505,1215.13,502.74,1210.57Z"/><path class="cls-2" d="M986,1314.79H956.32v-27l-2.07-.88c-2.1,2.74-4.18,5.5-6.31,8.21-22.83,29.14-54.78,30.09-77.93,1.14-25.91-32.41-24.92-90.21,21-115.69,21.38-11.87,42.69-9.9,64,3.21.4-1.81.66-2.91.88-4s.46-2.38.75-3.9H986Zm-30.12-79c0-12.22.29-24.45-.19-36.65-.13-3.3-1.72-7.61-4.15-9.6-17.76-14.53-48.89-15.33-61.38,11.49-11.13,23.9-11.28,48.88-2.7,73.19,8.68,24.62,39.14,30.88,58.93,13.55,6.46-5.66,10.46-11.72,9.69-21C955.22,1256.47,955.88,1246.08,955.88,1235.74Z"/><path class="cls-2" d="M1166.63,1314.82h-29v-10.14c0-27.63.64-55.27-.33-82.86a72.23,72.23,0,0,0-7.39-29.52c-7-13.59-21.31-16.82-33.65-7.9-9.53,6.88-17.59,15.92-25.62,24.63-2.16,2.34-2.49,7-2.52,10.54-.19,28.25-.1,56.5-.1,84.76v10.49h-30.37v-10.17q0-49,0-97.93c0-16.32-5.36-24-20.42-31.45h50.51V1203c4.69-4.62,7.88-7.79,11.09-10.93,13.18-12.86,28.54-20.62,47.39-18.9,23.49,2.16,40.08,18.1,41.1,42.59,1.34,32.27.37,64.63.36,97C1167.67,1313.28,1167.15,1313.81,1166.63,1314.82Z"/><path class="cls-2" d="M43.26,1314.5c1-3.4,1.74-6.86,2.88-10.19q26.74-78.19,53.57-156.37c.61-1.77,1.28-3.53,1.83-5.33,4.47-14.62.71-22.46-14.83-28.31,10.17,0,18.94-1,27.37.23,13.91,2.08,21.46,12.21,25.85,24.65,8.23,23.32,16.12,46.76,24.08,70.17q16,47.13,31.94,94.28c1.18,3.48,2,7.08,3.25,11.64-10.67,0-20.38.49-30-.35-2.43-.21-5.53-4.3-6.56-7.23q-14.76-42.09-28.76-84.45c-1.84-5.58-4.33-8-10.54-7.63-11.28.58-22.62.48-33.91,0-5.65-.22-8.2,1.71-10,7-9.32,28.24-19,56.37-28.64,84.49-1,3-3.09,5.74-4.67,8.59Zm63.34-170.69c-7.84,23.1-15,44.21-22.3,65.67h44.63C121.53,1187.73,114.43,1166.83,106.6,1143.81Z"/><path class="cls-2" d="M218.57,1245c-.47-39.15,32.44-71.28,73.92-72.16,41.2-.89,75.53,31.86,75.87,72.37.33,38.89-33.39,71.75-74.13,72.22C252.4,1318,219.05,1286,218.57,1245Zm119.36,1.74c-.84-20.21-4.48-39.09-18.39-54.35-15.47-17-36-17.08-51.79-.58-24.91,26-24.9,80.42,0,106.45,15.16,15.84,35.3,16.17,50.54.5C332.48,1284.23,336.92,1265.91,337.93,1246.76Z"/><path class="cls-2" d="M508.7,1098.4c-8.73-12.15-8.8-29.65-1.71-45.59,11.78-26.52,36-37.94,68-32.25,27.19,4.83,49.57,19.31,70.78,35.7,24.08,18.62,46.55,39.89,75.37,51a151.22,151.22,0,0,0,45.49,10.12c29.16,1.56,58.45.4,87.69.53,2.82,0,5.63,1.12,8.45,1.73-.2,1.18-.39,2.36-.59,3.54H801v75H770.37V1124.7c-17.29-2.57-33.58-4-49.38-7.56-35.69-8.1-63.93-29.51-91.5-52.3-14.92-12.33-30.53-24.39-47.46-33.57-17.6-9.53-37.41-10.08-54.61,2.23-16.55,11.84-23.12,29.19-21.52,49.43C506.25,1087.35,507.46,1091.69,508.7,1098.4Z"/><path class="cls-2" d="M1241.68,1314.81h-29.4c-.17-3.38-.49-6.7-.49-10,0-32.28-.31-64.56.09-96.83.2-15.62-5.21-26.73-20.83-32.12h50.63Z"/><path class="cls-2" d="M770.83,1205.38c21.3-3,30,4.19,30.07,24.82.08,27.89,0,55.79,0,84.38H770.83Z"/><path class="cls-2" d="M1246.89,1135.53c-.15,10.27-10.25,19.92-20.38,19.49-10.57-.46-19.47-10.16-19.06-20.76s9-18.57,19.83-18.53A19.43,19.43,0,0,1,1246.89,1135.53Z"/></g></g></svg>