<svg xmlns="http://www.w3.org/2000/svg" viewBox="0 0 463.65 114.94"><title>Asset 2</title><g id="Layer_2" data-name="Layer 2"><g id="Layer_1-2" data-name="Layer 1"><path d="M177,73.74c-5.3,12.64-10.35,24.65-15.38,36.66a13.05,13.05,0,0,1-1,2.33,18.49,18.49,0,0,1-2,2.18c-.72-.69-1.71-1.24-2.11-2.08-3.53-7.54-7-15.13-10.42-22.71-3.11-6.8-6.2-13.62-9.36-20.4-2-4.15-4.6-7.65-9.45-8.95,9.43-2.78,17.45.74,21.49,9.41,4.22,9.09,8.35,18.21,12.52,27.32.5,1.08,1,2.14,1.86,3.87,4.26-10.21,8.29-19.8,12.19-29.44.33-.81-.12-2.08-.51-3-1.14-2.75-2.43-5.44-3.93-8.75,3.89,0,7.25-.19,10.56.13.91.08,1.95,1.57,2.45,2.64,5.35,11.49,10.6,23,15.88,34.54.49,1.08,1,2.14,1.85,3.88,3.25-7.73,6.24-14.86,9.23-22,2.34-5.57,4.64-11.14,7-16.68a16.07,16.07,0,0,1,2-2.75l.89.5A23.53,23.53,0,0,1,220,63Q209.75,87.5,199.4,112a14.66,14.66,0,0,1-2.21,2.9,12.72,12.72,0,0,1-2.41-2.71c-5.35-11.49-10.6-23-15.88-34.55C178.4,76.57,177.85,75.5,177,73.74Z"/><path d="M363.15,113.89H351.71V103.5l-.79-.34c-.81,1.06-1.61,2.12-2.43,3.16-8.8,11.23-21.11,11.59-30,.44-10-12.48-9.6-34.75,8.09-44.56,8.23-4.57,16.44-3.82,24.64,1.23.16-.69.26-1.12.34-1.54s.18-.92.29-1.5h11.32ZM351.54,83.44c0-4.71.12-9.42-.07-14.12a5.52,5.52,0,0,0-1.6-3.7C343,60,331,59.72,326.23,70.05c-4.29,9.2-4.34,18.83-1,28.19s15.08,11.9,22.7,5.22c2.49-2.18,4-4.51,3.73-8.08C351.29,91.42,351.54,87.42,351.54,83.44Z"/><path d="M432.73,113.9H421.55V110c0-10.64.24-21.29-.13-31.91a27.81,27.81,0,0,0-2.85-11.38c-2.67-5.23-8.2-6.47-13-3-3.67,2.65-6.77,6.13-9.87,9.49-.83.9-1,2.68-1,4.06-.07,10.88,0,21.77,0,32.65v4H383V110q0-18.86,0-37.72C383,66,381,63,375.17,60.14h19.46v10.7c1.81-1.78,3-3,4.27-4.21,5.08-4.95,11-7.94,18.26-7.28,9,.83,15.44,7,15.83,16.41.52,12.43.14,24.89.14,37.34C433.13,113.31,432.93,113.51,432.73,113.9Z"/><path d="M0,113.78c.37-1.31.67-2.64,1.11-3.93Q11.42,79.73,21.75,49.62c.23-.69.49-1.36.7-2.06,1.72-5.63.27-8.65-5.71-10.9,3.91,0,7.29-.4,10.54.09,5.36.8,8.27,4.7,10,9.49,3.17,9,6.21,18,9.27,27q6.18,18.15,12.31,36.32c.45,1.34.76,2.73,1.25,4.48-4.11,0-7.85.19-11.55-.13-.94-.08-2.13-1.66-2.53-2.79Q40.31,94.94,34.91,78.62c-.71-2.14-1.66-3.06-4.06-2.94-4.34.23-8.71.19-13.06,0-2.17-.09-3.16.66-3.83,2.71-3.59,10.88-7.3,21.71-11,32.54a22.66,22.66,0,0,1-1.8,3.31ZM24.4,48c-3,8.9-5.79,17-8.59,25.3H33C30.15,65,27.41,56.89,24.4,48Z"/><path d="M67.53,87C67.35,71.93,80,59.56,96,59.21s29.09,12.28,29.22,27.88c.13,15-12.86,27.64-28.56,27.82C80.56,115.1,67.72,102.81,67.53,87Zm46,.67c-.33-7.78-1.73-15.05-7.09-20.93-6-6.54-13.85-6.58-20-.23-9.59,10-9.59,31,0,41,5.84,6.1,13.6,6.23,19.47.19C111.41,102.12,113.12,95.06,113.51,87.68Z"/><path d="M179.29,30.53c-3.36-4.68-3.39-11.42-.66-17.56C183.17,2.76,192.48-1.64,204.81.55,215.28,2.41,223.9,8,232.07,14.3c9.28,7.17,17.94,15.37,29,19.65a58.1,58.1,0,0,0,17.52,3.89c11.23.61,22.52.16,33.78.21a16.31,16.31,0,0,1,3.25.66c-.07.46-.15.92-.23,1.37H291.89V69h-11.8V40.67c-6.66-1-12.94-1.54-19-2.92-13.74-3.12-24.62-11.36-35.24-20.14A116.27,116.27,0,0,0,207.54,4.68c-6.78-3.68-14.41-3.89-21,.85-6.37,4.56-8.91,11.25-8.29,19C178.34,26.28,178.81,28,179.29,30.53Z"/><path d="M461.64,113.89H450.31c-.07-1.3-.19-2.58-.19-3.85,0-12.44-.12-24.87,0-37.3.07-6-2-10.3-8-12.38h19.51Z"/><path d="M280.26,71.74c8.21-1.17,11.57,1.62,11.59,9.56,0,10.75,0,21.49,0,32.51h-11.6Z"/><path d="M463.64,44.83c-.06,4-3.95,7.68-7.85,7.51a7.89,7.89,0,0,1-7.34-8,7.6,7.6,0,0,1,15.19.48Z"/></g></g></svg>