<svg xmlns="http://www.w3.org/2000/svg" id="Layer_1" data-name="Layer 1" viewBox="0 0 2080 2080"><defs><linearGradient id="linear-gradient" x1="9417.12" y1="630.98" x2="10357.82" y2="630.98" gradientTransform="matrix(-1 0 0 1 10931.71 0)" gradientUnits="userSpaceOnUse"><stop offset="0" stop-color="#ee7235"/><stop offset=".18" stop-color="#ee7734"/><stop offset=".4" stop-color="#f08634"/><stop offset=".65" stop-color="#f3a033"/><stop offset=".91" stop-color="#f7c331"/><stop offset="1" stop-color="#f9d131"/></linearGradient><linearGradient id="linear-gradient-2" x1="9142.37" y1="1112.11" x2="10641.05" y2="1112.11" gradientTransform="matrix(-1 0 0 1 10931.71 0)" gradientUnits="userSpaceOnUse"><stop offset="0" stop-color="#1070a4"/><stop offset=".2" stop-color="#1175a8"/><stop offset=".44" stop-color="#1684b6"/><stop offset=".71" stop-color="#1e9ecc"/><stop offset="1" stop-color="#29c1eb"/><stop offset="1" stop-color="#2ac2ec"/></linearGradient><style>.cls-2{fill:#21093d}</style></defs><path class="cls-2" d="M421.72 1687.46H374.4l-8.01 23.74h-30.12l50.29-150.58h22.77l40.13 119.79 5.64 16.47c.59 1.73 1.25 3.18 1.97 4.34.72 1.16 1.46 2.1 2.23 2.82.77.72 1.54 1.26 2.34 1.63.79.37 1.56.58 2.3.63a24.708 24.708 0 0 1-4.93 2.78c-1.71.72-3.42 1.29-5.16 1.71-1.73.42-3.45.71-5.16.85s-3.35.22-4.93.22c-2.08 0-4.03-.2-5.86-.59-1.83-.4-3.52-1.06-5.08-2s-2.92-2.15-4.08-3.63c-1.16-1.48-2.11-3.34-2.86-5.56l-3.86-11.72-.3-.89zm-23.74-76.48-15.35 52.07h30.93l-15.58-52.07zM642.17 1659.05c0 7.71-.77 14.84-2.3 21.36-1.53 6.53-4.08 12.18-7.64 16.95-3.56 4.77-8.28 8.49-14.17 11.16-5.89 2.67-13.15 4-21.81 4s-15.8-1.35-21.59-4.04c-5.79-2.7-10.42-6.44-13.91-11.24s-5.97-10.45-7.46-16.95c-1.48-6.5-2.23-13.59-2.23-21.25v-14.91c0-7.42.77-14.25 2.3-20.51 1.53-6.25 4.05-11.66 7.57-16.21 3.51-4.55 8.16-8.11 13.95-10.68s12.91-3.86 21.36-3.86 15.53 1.27 21.36 3.82 10.57 6.11 14.21 10.68c3.63 4.58 6.27 10.01 7.9 16.32s2.45 13.19 2.45 20.66v14.69zm-25.96-15.65c0-3.61-.26-7.11-.78-10.5-.52-3.39-1.51-6.38-2.97-8.98-1.46-2.6-3.49-4.67-6.08-6.23-2.6-1.56-5.97-2.34-10.13-2.34s-7.34.79-9.87 2.37a16.567 16.567 0 0 0-5.9 6.31c-1.41 2.62-2.37 5.63-2.89 9.01-.52 3.39-.78 6.86-.78 10.42v16.32c0 3.81.23 7.52.7 11.13.47 3.61 1.4 6.81 2.78 9.61 1.38 2.79 3.35 5.04 5.9 6.75 2.55 1.71 5.9 2.56 10.05 2.56s7.76-.84 10.38-2.52a16.93 16.93 0 0 0 6.05-6.68c1.41-2.77 2.35-5.97 2.82-9.61.47-3.63.7-7.38.7-11.24v-16.39zM854.9 1711.2h-21.59l-22.18-75.51-21.81 75.51h-21.66L735.39 1594h27.89l16.99 74.55 21.29-74.55h18.92l21.59 74.55 15.13-65.28c.49-2.03 1.31-3.7 2.45-5.01 1.14-1.31 2.42-2.36 3.86-3.15a14.81 14.81 0 0 1 4.56-1.63c1.61-.3 3.1-.47 4.49-.52 4.2-.1 7.95.59 11.24 2.08 3.29 1.48 5.8 3.24 7.53 5.27-1.63.59-2.98 1.27-4.04 2.04s-1.97 1.74-2.71 2.93c-.74 1.19-1.4 2.62-1.97 4.3-.57 1.68-1.18 3.73-1.82 6.16l-25.89 95.46zM1169.99 1585.54h-35.68v-24.92h100.06v24.92h-35.75v113.49c0 1.78.19 3.3.56 4.56.37 1.26.83 2.34 1.37 3.23.54.89 1.12 1.62 1.74 2.19.62.57 1.2 1.05 1.74 1.45-4.5.99-8.8 1.46-12.91 1.41-4.11-.05-7.73-.82-10.87-2.3-3.14-1.48-5.64-3.79-7.49-6.94-1.86-3.14-2.78-7.28-2.78-12.42v-104.66zM1363.22 1613.58c-2.87 0-6.03.32-9.49.96-3.46.64-6.87 1.82-10.24 3.52-3.36 1.71-6.5 4.04-9.42 7.01s-5.22 6.75-6.9 11.35c-.3-.64-.59-1.58-.89-2.82-.3-1.24-.5-2.69-.59-4.38-.1-1.68-.05-3.57.15-5.67s.64-4.36 1.33-6.79c.74-2.62 1.99-5.34 3.75-8.16 1.75-2.82 4.13-5.4 7.12-7.75 2.99-2.35 6.65-4.28 10.98-5.79 4.33-1.51 9.43-2.26 15.32-2.26 14.59 0 25.62 3.05 33.08 9.16 7.47 6.11 11.2 15.29 11.2 27.56l.07 62.09c0 2.57.05 4.76.15 6.57.1 1.81.35 3.39.74 4.75.4 1.36 1.01 2.56 1.85 3.6.84 1.04 1.98 2.08 3.41 3.12-.84.59-1.92 1.1-3.23 1.52-1.31.42-2.72.74-4.23.96-1.51.22-3.05.33-4.64.33s-3.09-.15-4.52-.44c-2.77-.54-5.43-1.66-7.97-3.34-2.55-1.68-4.59-4-6.12-6.97a52.154 52.154 0 0 1-5.42 4.49 32.188 32.188 0 0 1-5.9 3.34c-2.1.92-4.39 1.61-6.86 2.08-2.47.47-5.22.7-8.23.7-4.8 0-9.31-.7-13.54-2.11-4.23-1.41-7.94-3.5-11.13-6.27-3.19-2.77-5.71-6.19-7.57-10.27-1.85-4.08-2.78-8.79-2.78-14.13v-9.64c0-4.01.73-7.84 2.19-11.5s3.66-6.87 6.6-9.64c2.94-2.77 6.61-4.98 11.01-6.64 4.4-1.66 9.54-2.48 15.43-2.48h24.92v-8.46c0-2.87-.35-5.4-1.04-7.6-.69-2.2-1.81-4.04-3.34-5.53-1.53-1.48-3.56-2.6-6.08-3.34-2.52-.74-5.59-1.11-9.2-1.11zm19.66 46.29h-20.77c-4.45 0-7.95.73-10.5 2.19s-3.85 3.92-3.89 7.38l-.07 9.79c0 1.78.3 3.4.89 4.86.59 1.46 1.51 2.72 2.74 3.78s2.78 1.89 4.64 2.48 4.02.89 6.49.89c1.83 0 3.51-.06 5.04-.19 1.53-.12 2.97-.37 4.3-.74 1.34-.37 2.6-.9 3.78-1.59 1.19-.69 2.37-1.58 3.56-2.67 1.38-1.38 2.36-3.13 2.93-5.23.57-2.1.85-4.74.85-7.9v-13.05zM1577.58 1634.5c0-3.61-.47-6.64-1.41-9.09s-2.18-4.41-3.71-5.9c-1.53-1.48-3.29-2.55-5.27-3.19-1.98-.64-3.98-.96-6.01-.96s-4.18.43-6.31 1.3c-2.13.87-4.05 2.14-5.79 3.82-1.73 1.68-3.15 3.8-4.27 6.34-1.11 2.55-1.67 5.48-1.67 8.79v75.59h-25.96V1594h25.15v10.9c3.56-3.86 7.43-6.82 11.61-8.9s8.96-3.12 14.35-3.12 10.33.99 14.69 2.97c4.35 1.98 8.05 4.69 11.09 8.12 3.04 3.44 5.38 7.5 7.01 12.2 1.63 4.7 2.45 9.79 2.45 15.28v60.16c0 2.57.05 4.76.15 6.57.1 1.81.35 3.39.74 4.75.4 1.36 1.01 2.56 1.85 3.6.84 1.04 1.98 2.08 3.41 3.12-.84.59-1.94 1.09-3.3 1.48-1.36.4-2.82.69-4.38.89-1.56.2-3.13.3-4.71.3s-2.99-.1-4.23-.3c-1.29-.15-2.81-.53-4.56-1.15-1.76-.62-3.45-1.54-5.08-2.78-1.63-1.24-3.02-2.82-4.15-4.75-1.14-1.93-1.71-4.28-1.71-7.05v-61.79zM1709.61 1559.21c0-2.08.4-4 1.19-5.79s1.88-3.34 3.26-4.67a15.59 15.59 0 0 1 4.82-3.15c1.83-.77 3.76-1.15 5.79-1.15s4.02.38 5.82 1.15c1.8.77 3.38 1.82 4.71 3.15s2.39 2.89 3.15 4.67 1.15 3.71 1.15 5.79-.38 4.02-1.15 5.82c-.77 1.81-1.82 3.4-3.15 4.78a14.673 14.673 0 0 1-4.71 3.26c-1.81.79-3.75 1.19-5.82 1.19s-3.96-.4-5.79-1.19c-1.83-.79-3.44-1.88-4.82-3.26a15.374 15.374 0 0 1-3.26-4.78c-.79-1.8-1.19-3.75-1.19-5.82zm28.19 132.33c0 2.57.04 4.76.11 6.57.07 1.81.3 3.39.67 4.75.37 1.36.96 2.56 1.78 3.6.82 1.04 1.94 2.08 3.38 3.12-.84.59-2 1.1-3.49 1.52-1.48.42-3.12.74-4.9.96-1.78.22-3.65.32-5.6.3-1.95-.03-3.82-.16-5.6-.41-1.39-.2-2.81-.66-4.27-1.37-1.46-.72-2.78-1.68-3.97-2.89-1.19-1.21-2.16-2.66-2.93-4.34-.77-1.68-1.15-3.58-1.15-5.71v-103.62h25.96v97.54z"/><g><path d="M573.89 752.47c41.9-219.27 234.63-385 466.11-385 262.11 0 474.59 212.48 474.59 474.59 0 17.73-1 35.22-2.9 52.44-135.74-49.63-346.75-106.75-505.05-125.13-138.9-16.13-312.06-24.01-432.75-16.89z" style="fill:url(#linear-gradient)"/><path class="cls-2" d="M821.93 1117.18s-3.44-27.52-25.88-41.38c-22.44-13.87-48.3-8.63-62.96-2.66l16.2 7.72s8.6-3.01 13.78-3.26c0 0-7.42 2.84-9.06 5.69 0 0 6.06 3.44 10.78 4.32 0 0 4.25-4.84 10.56-4.61 0 0-6.55 4.53-7.39 7.05l8.75 5.45s5.58-3.61 14.36-3.67c0 0-9.03 5.2-9.26 6.85 0 0 3.06 1.59 7.09 4.61 0 0 4.67-5.32 14-2.28 0 0-7.37 2.62-8.85 5.09 0 0 18.21 4.16 27.88 11.1z"/><path class="cls-2" d="M822.38 1117s-16.77-22.08-10.41-47.69c6.36-25.6 28.51-39.93 43.17-45.91l-6.2 16.84s-8.25 3.86-12.13 7.31c0 0 7.29-3.16 10.46-2.27 0 0-1.94 6.7-4.69 10.62 0 0-6.42-.49-10.78 4.08 0 0 7.85-1.33 10.21-.12l-2.45 10.01s-6.51 1.32-12.84 7.42c0 0 10.1-2.59 11.41-1.57 0 0-1.08 3.27-1.85 8.25 0 0-7.06-.54-11.6 8.15 0 0 7.1-3.28 9.88-2.55 0 0-10.12 15.7-12.18 27.43zM822.14 1117.62s-26.97-6.46-47.84 9.66c-20.88 16.13-25.07 42.17-24.64 58l12.92-12.45s.21-9.11 1.8-14.05c0 0 .05 7.95 2.13 10.48 0 0 5.35-4.47 7.83-8.57 0 0-3.04-5.68-.6-11.51 0 0 1.94 7.73 4 9.4l8.18-6.27s-1.42-6.49 1.62-14.74c0 0 1.69 10.28 3.15 11.08 0 0 2.56-2.3 6.81-5.01 0 0-3.34-6.25 2.79-13.9 0 0-.14 7.82 1.65 10.07 0 0 10.3-15.59 20.2-22.19zM820.46 1119.52s22.91-15.63 48.15-7.97c25.25 7.65 38.43 30.5 43.65 45.45l-16.51-7.05s-3.43-8.44-6.68-12.49c0 0 2.78 7.45 1.73 10.56 0 0-6.59-2.27-10.37-5.23 0 0 .82-6.39-3.53-10.97 0 0 .93 7.91-.4 10.21l-9.87-2.96s-.98-6.57-6.75-13.2c0 0 2.07 10.21.99 11.47 0 0-3.21-1.24-8.14-2.26 0 0 .9-7.03-7.55-12 0 0 2.91 7.26 2.04 10 0 0-15.17-10.91-26.77-13.56z"/><path class="cls-2" d="M821.95 1117.15s-18.95-13.79-32.55-15.99l-3.17 3.82-1.24-5.29s-8.15-2.85-15.34-2.75c-.87.01-1.84 4.09-2.2 6.67 0 0-1.8-4.39-1.67-7.11 0 0-26.36 1.95-55 25.79 0 0 23.6 4.47 35.83 4.11 0 0-1.31-3.93-.99-6.7 0 0 2.57 4.4 5.46 6.03 0 0 13.59-1.65 14.96-1.3 0 0 .89-4.15 1.43-6.78 0 0 1.41 6.02 2.3 7.35l8.05-.15s1.5-3.43 2.8-5.28l.5 6.23s8.59.83 13.04.6l1.41-6.3 2.16 6.93s21.82-9.96 24.22-9.89z"/><path class="cls-2" d="M818.81 1120.24s6.67-22.47 16.14-32.48l4.84 1.11-2.23-4.96s4.74-7.22 10.51-11.51c.7-.52 3.94 2.13 5.8 3.97 0 0-1.24-4.58-3-6.66 0 0 22.12-14.47 59.35-12.93 0 0-16.03 17.89-25.96 25.03 0 0-1.35-3.91-3.28-5.92 0 0 .63 5.06-.67 8.11 0 0-11.8 6.95-12.67 8.06 0 0-3.23-2.76-5.25-4.52 0 0 2.54 5.64 2.64 7.24l-6.49 4.77s-3.28-1.81-5.43-2.49l3.39 5.25s-6.32 5.88-9.99 8.4l-4.95-4.14 2.5 6.82s-23.38 5.35-25.24 6.86z"/><path class="cls-2" d="M819.28 1118.14s22.53 6.46 32.63 15.83l-1.07 4.85 4.93-2.28s7.26 4.67 11.61 10.4c.53.69-2.09 3.96-3.91 5.84 0 0 4.57-1.28 6.64-3.06 0 0 14.68 21.98 13.5 59.22 0 0-18.04-15.86-25.28-25.72 0 0 3.9-1.39 5.89-3.34 0 0-5.05.68-8.11-.59 0 0-7.06-11.73-8.18-12.59 0 0 2.73-3.25 4.47-5.3 0 0-5.61 2.59-7.21 2.71l-4.83-6.44s1.78-3.3 2.43-5.46l-5.22 3.44s-5.94-6.26-8.49-9.91l4.1-4.99-6.79 2.56s-5.57-23.33-7.1-25.18z"/><path class="cls-2" d="M820.34 1116.43s-16.72 16.43-21.12 29.48l3.25 3.75-5.42.36s-4.15 7.57-5.24 14.68c-.13.86 3.73 2.49 6.22 3.26 0 0-4.63 1.05-7.29.48 0 0-2.41 26.32 16.41 58.48 0 0 8.29-22.54 9.94-34.67 0 0-4.09.64-6.77-.12 0 0 4.76-1.81 6.85-4.39 0 0 .6-13.68 1.18-14.97 0 0-3.95-1.56-6.45-2.52 0 0 6.17-.4 7.63-1.06l1.17-7.96s-3.14-2.05-4.74-3.63l6.23.53s2.23-8.33 2.73-12.76l-5.98-2.43 7.19-.99s-6.24-23.16-5.78-25.51z"/><path class="cls-2" d="M824.21 1118.14s6.7 42.25 29.01 83.22c16.85 30.95 46.6 107.24 43.59 179.54h-19.88s0-81.94-21.2-137.97c-15.28-40.38-34.72-82.95-37.19-123.41l5.67-1.38z"/><g><path class="cls-2" d="M971.72 1197.32s4.76-19.35 21.94-27.36c17.18-8.01 35.19-2.11 45.15 3.39l-12.21 4.15s-5.88-2.87-9.56-3.48c0 0 5.06 2.65 5.99 4.82 0 0-4.62 1.94-8.05 2.17 0 0-2.62-3.81-7.15-4.18 0 0 4.29 3.79 4.68 5.65l-6.7 3.15s-3.68-3.05-9.94-3.82c0 0 6.01 4.47 6.03 5.67 0 0-2.31.87-5.44 2.69 0 0-2.89-4.19-9.8-2.8 0 0 5.04 2.49 5.89 4.37 0 0-13.35 1.44-20.83 5.58z"/><path class="cls-2" d="M971.42 1197.16s13.82-14.35 11.43-33.16c-2.39-18.8-16.99-30.89-26.96-36.38l3.01 12.54s5.57 3.45 8.05 6.23c0 0-4.94-2.87-7.27-2.5 0 0 .82 4.94 2.46 7.97 0 0 4.62.19 7.35 3.82 0 0-5.49-1.61-7.28-.94l.91 7.35s4.54 1.49 8.54 6.37c0 0-6.99-2.7-8.01-2.08 0 0 .49 2.42.63 6.04 0 0 5.09.21 7.6 6.79 0 0-4.79-2.93-6.84-2.65 0 0 5.9 12.06 6.39 20.6zM971.54 1197.62s19.79-2.35 33.33 10.91 14.35 32.2 12.72 43.46l-8.18-9.97s.61-6.52-.11-10.18c0 0-.7 5.67-2.4 7.3 0 0-3.44-3.64-4.87-6.77 0 0 2.64-3.8 1.4-8.16 0 0-2.03 5.35-3.64 6.37l-5.31-5.16s1.56-4.51.08-10.65c0 0-2.07 7.2-3.18 7.64 0 0-1.63-1.86-4.44-4.15 0 0 2.91-4.18-.82-10.16 0 0-.55 5.59-2.02 7.05 0 0-6.04-11.99-12.55-17.53zM972.58 1199.12s-15.04-13.08-33.69-9.73c-18.66 3.34-29.98 18.54-34.97 28.77l12.37-3.64s3.16-5.73 5.81-8.35c0 0-2.61 5.08-2.12 7.39 0 0 4.89-1.07 7.84-2.86 0 0-.05-4.63 3.44-7.53 0 0-1.33 5.57-.57 7.32l7.29-1.28s1.25-4.61 5.93-8.85c0 0-2.34 7.11-1.67 8.11 0 0 2.4-.62 6-.93 0 0-.05-5.09 6.39-7.93 0 0-2.69 4.93-2.3 6.97 0 0 11.74-6.51 20.24-7.43z"/><path class="cls-2" d="M971.71 1197.3s14.68-8.25 24.57-8.68l1.94 2.99 1.33-3.67s6.06-1.35 11.18-.68c.62.08.97 3.07 1.01 4.95 0 0 1.65-2.98 1.79-4.94 0 0 18.65 3.6 37.08 23.02 0 0-17.22 1.21-25.91-.08 0 0 1.26-2.69 1.27-4.69 0 0-2.2 2.92-4.4 3.85 0 0-9.56-2.32-10.57-2.18 0 0-.29-3.04-.45-4.96 0 0-1.51 4.18-2.26 5.05l-5.73-.79s-.79-2.58-1.56-4l-.88 4.41s-6.2-.13-9.35-.67l-.48-4.61-2.12 4.77s-14.74-8.94-16.45-9.09z"/><path class="cls-2" d="M973.7 1199.77s-2.87-16.59-8.79-24.53l-3.54.39 2.01-3.35s-2.78-5.55-6.53-9.1c-.45-.43-2.99 1.19-4.47 2.34 0 0 1.27-3.16 2.7-4.5 0 0-14.57-12.18-41.27-14.21 0 0 9.93 14.11 16.43 20.04 0 0 1.29-2.68 2.84-3.95 0 0-.88 3.56-.2 5.84 0 0 7.84 5.95 8.37 6.82 0 0 2.53-1.7 4.13-2.78 0 0-2.28 3.81-2.49 4.94l4.23 3.95s2.49-1.02 4.09-1.32l-2.86 3.47s4.01 4.72 6.42 6.83l3.88-2.54-2.35 4.66s16.24 5.78 17.44 7.01z"/><path class="cls-2" d="M973.53 1198.23s-16.62 2.72-24.62 8.56l.35 3.55-3.33-2.04s-5.57 2.73-9.16 6.45c-.43.45 1.16 3 2.3 4.49 0 0-3.15-1.3-4.48-2.74 0 0-12.32 14.45-14.6 41.13 0 0 14.21-9.8 20.2-16.23 0 0-2.67-1.32-3.92-2.88 0 0 3.55.91 5.84.26 0 0 6.02-7.78 6.89-8.3 0 0-1.67-2.55-2.74-4.15 0 0 3.79 2.32 4.92 2.54l3.99-4.19s-.99-2.5-1.28-4.1l3.44 2.89s4.76-3.97 6.89-6.36l-2.51-3.9 4.63 2.4s5.94-16.18 7.18-17.37z"/><path class="cls-2" d="M972.92 1196.92s10.55 13.13 12.6 22.81l-2.63 2.4 3.84.71s2.33 5.75 2.5 10.92c.02.62-2.87 1.46-4.71 1.8 0 0 3.21 1.14 5.16.95 0 0-.49 18.99-16.62 40.36 0 0-4.02-16.78-4.18-25.58 0 0 2.86.8 4.84.48 0 0-3.25-1.69-4.52-3.71 0 0 .72-9.81.42-10.78 0 0 2.95-.78 4.82-1.26 0 0-4.37-.81-5.36-1.4l-.17-5.78s2.41-1.2 3.69-2.19l-4.49-.14s-.89-6.13-.88-9.34l4.47-1.23-5.05-1.31s6.4-16.01 6.27-17.72z"/></g><path class="cls-2" d="M970.02 1197.82s-8.33 29.59-27.69 56.95c-14.62 20.67-42.26 72.62-46.18 124.46l14.19 1.67s6.88-58.47 26.71-96.68c14.29-27.53 31.74-56.28 36.9-84.95l-3.93-1.46z"/><path class="cls-2" d="M920 1399.76s13.25-7.35 25.4-9.59c0 0-14.38-3.51-27.16 2.56 0 0 7.1-15.66 16.81-19.81 0 0-14.19 3.51-21.25 15.34 0 0 2.21-15.66 9.88-26.2 0 0-11.5 5.11-17.89 15.98h-20.77s-6.39-12.14-20.13-15.98c0 0 7.99 4.15 9.27 18.85 0 0-9.91-7.99-19.17-3.83 0 0 11.82 4.79 15.34 10.86 0 0-17.57-7.35-26.2-.32 0 0 18.85 2.56 25.88 12.14h50.01z"/><path d="M457.49 799.98c25.84-8.49 66.68-13.96 116.4-16.89 120.7-7.11 293.85.76 432.75 16.89 158.3 18.38 369.31 75.5 505.05 125.13 32.44 11.86 60.62 23.3 82.71 33.67 114.51 53.78 89.84 100.6 161.33 221.44 71.49 120.84 12.02 117.36-23.09 117.99-35.11.63-18.66 12.81-18.66 12.81 9.49 11.39 0 22.93 0 22.93-22.78 27.84-169.56 24.04-225.23 18.98-55.68-5.06-97.43 2.53-127.8 24.04-30.37 21.51 1.9 20.88-123.37 55.04-125.27 34.16-406.18-17.08-406.18-17.08-23.63-8.69 26.59-45.77 87.7-83.24 61.42-37.66 133.85-75.7 153.35-85.69 38.91-19.93 158.17-84.78 231.56-122.74 73.39-37.96 37.96-84.78 13.29-92.37-24.68-7.59-18.35-28.47 0-38.59 18.35-10.12 25.31-19.61 9.49-28.47-15.82-8.86-243.58-27.84-421.36 5.69s-155.64 5.06-155.64 5.06c13.92-55.68-24.04-37.96-91.11-58.21-19.76-5.96-53.19-8.29-92-9.14-92.92-2.04-216.92 4.44-259.76-9.84-60.74-20.24 62-68.33 150.58-97.43z" style="fill:url(#linear-gradient-2)"/></g></svg>