<svg xmlns="http://www.w3.org/2000/svg" xmlns:xlink="http://www.w3.org/1999/xlink" viewBox="0 0 583.88 583.88"><defs><style>.cls-1,.cls-2{fill:none;}.cls-2{stroke-miterlimit:10;stroke-width:15px;stroke:url(#linear-gradient);}.cls-3{clip-path:url(#clip-path);}.cls-4{fill:url(#linear-gradient-2);}.cls-5{clip-path:url(#clip-path-2);}.cls-6{fill:url(#linear-gradient-3);}.cls-7{clip-path:url(#clip-path-3);}.cls-8{fill:url(#linear-gradient-4);}.cls-9{clip-path:url(#clip-path-4);}.cls-10{fill:url(#linear-gradient-5);}.cls-11{clip-path:url(#clip-path-5);}.cls-12{fill:url(#linear-gradient-6);}.cls-13{clip-path:url(#clip-path-6);}.cls-14{fill:url(#linear-gradient-7);}.cls-15{clip-path:url(#clip-path-7);}.cls-16{fill:url(#linear-gradient-8);}.cls-17{clip-path:url(#clip-path-8);}.cls-18{fill:url(#linear-gradient-9);}.cls-19{clip-path:url(#clip-path-9);}.cls-20{fill:url(#linear-gradient-10);}.cls-21{clip-path:url(#clip-path-10);}.cls-22{fill:url(#linear-gradient-11);}.cls-23{clip-path:url(#clip-path-11);}.cls-24{fill:url(#linear-gradient-12);}.cls-25{clip-path:url(#clip-path-12);}.cls-26{fill:url(#linear-gradient-13);}.cls-27{clip-path:url(#clip-path-13);}.cls-28{fill:url(#linear-gradient-14);}.cls-29{clip-path:url(#clip-path-14);}.cls-30{fill:url(#linear-gradient-15);}.cls-31{clip-path:url(#clip-path-15);}.cls-32{fill:url(#linear-gradient-16);}.cls-33{clip-path:url(#clip-path-16);}.cls-34{fill:url(#linear-gradient-17);}.cls-35{clip-path:url(#clip-path-17);}.cls-36{fill:url(#linear-gradient-18);}.cls-37{clip-path:url(#clip-path-18);}.cls-38{fill:url(#linear-gradient-19);}.cls-39{clip-path:url(#clip-path-19);}.cls-40{fill:url(#linear-gradient-20);}.cls-41{clip-path:url(#clip-path-20);}.cls-42{fill:url(#linear-gradient-21);}.cls-43{clip-path:url(#clip-path-21);}.cls-44{fill:url(#linear-gradient-22);}.cls-45{clip-path:url(#clip-path-22);}.cls-46{fill:url(#linear-gradient-23);}.cls-47{clip-path:url(#clip-path-23);}.cls-48{fill:url(#linear-gradient-24);}.cls-49{clip-path:url(#clip-path-24);}.cls-50{fill:url(#linear-gradient-25);}</style><linearGradient id="linear-gradient" y1="291.94" x2="583.88" y2="291.94" gradientUnits="userSpaceOnUse"><stop offset="0" stop-color="#1070a4"/><stop offset="0.2" stop-color="#1275a9"/><stop offset="0.44" stop-color="#1785b6"/><stop offset="0.71" stop-color="#1f9ecd"/><stop offset="1" stop-color="#2ac2ec"/><stop offset="1" stop-color="#2ac2ec"/></linearGradient><clipPath id="clip-path"><path class="cls-1" d="M453.5,277c-.4.46-.93,1.17-1.67,2l-1.21,1.4L449.15,282c-.54.55-1.14,1.1-1.76,1.69s-1.31,1.15-2,1.72a26.08,26.08,0,0,1-5,3,20.05,20.05,0,0,1-6.1,1.4,21.93,21.93,0,0,1-6.67-.78l-1.64-.46-1.79-.67-.82-.31-.92-.37-1.83-.74a64,64,0,0,0-7.65-2.17,33.39,33.39,0,0,0-7.8-.76,23.75,23.75,0,0,0-7.33,1.2,19,19,0,0,0-3.17,1.38c-.49.28-1,.53-1.43.82l-1.26,1a15.4,15.4,0,0,0-2.18,1.95,14.88,14.88,0,0,0-1.67,2c-.25.32-.48.64-.71.94a9.42,9.42,0,0,0-.56.95c-.35.6-.66,1.17-.94,1.67-.5,1-.78,1.87-1,2.43l-.34.86,2.11-2.86,1.21-1.37.68-.76.81-.75a12.2,12.2,0,0,1,1.83-1.54,15.46,15.46,0,0,1,2.17-1.45c.4-.21.8-.44,1.21-.67s.88-.35,1.32-.52a18,18,0,0,1,2.83-.9,24.72,24.72,0,0,1,6.4-.49,31.54,31.54,0,0,1,3.43.33l1.74.34c.58.1,1.17.21,1.76.37a56.45,56.45,0,0,1,7.05,2.16l1.75.66,1.86.69,1.81.64,2,.54a22.78,22.78,0,0,0,8.07.53,20.38,20.38,0,0,0,7.2-2.31,23.47,23.47,0,0,0,5.23-4c.71-.72,1.34-1.45,1.93-2.15s1.06-1.41,1.51-2.08l1.2-1.88c.33-.6.63-1.17.9-1.67a25.36,25.36,0,0,0,1.14-2.38l.39-.85s-.21.25-.58.73"/></clipPath><linearGradient id="linear-gradient-2" x1="-724.53" y1="-1794.11" x2="-722.62" y2="-1794.11" gradientTransform="matrix(36.51, 0, 0, -36.51, 26837.72, -65217.3)" xlink:href="#linear-gradient"/><clipPath id="clip-path-2"><path class="cls-1" d="M423,315.31a22.64,22.64,0,0,1-2.39,2,7.53,7.53,0,0,1-1.58,1,9.34,9.34,0,0,1-1.81.93,15.1,15.1,0,0,1-4.34,1.08,22.64,22.64,0,0,1-5.07-.26c-1.78-.22-3.62-.74-5.54-1.18l-5.91-1.48a61.52,61.52,0,0,0-6.22-1c-1.09-.08-2.2-.1-3.27-.11l-3,.24c-1,.21-2,.35-3,.63s-1.87.61-2.73,1a24.09,24.09,0,0,0-2.42,1.29c-.72.52-1.43,1-2.06,1.51l-1.66,1.63c-.48.57-.86,1.17-1.25,1.69a17.38,17.38,0,0,0-1.56,3c-.29.85-.42,1.55-.56,2s-.18.71-.18.71l1.46-2.41a25.27,25.27,0,0,1,2-2.33c.44-.4.87-.85,1.39-1.26s1.1-.76,1.68-1.18,1.31-.66,2-1,1.46-.54,2.21-.83,1.6-.38,2.42-.58l2.57-.33,2.81,0c.89.1,1.77.18,2.68.25a55.65,55.65,0,0,1,5.75,1.08l5.91,1.33a30.12,30.12,0,0,0,3,.56,28,28,0,0,0,3,.36,20,20,0,0,0,5.91-.3,17.25,17.25,0,0,0,2.67-.8,16.6,16.6,0,0,0,2.3-1.2,9.35,9.35,0,0,0,1.87-1.41,8.5,8.5,0,0,0,1.48-1.45,15.83,15.83,0,0,0,2-2.68c.91-1.59,1.37-2.49,1.37-2.49s-.76.73-2,2"/></clipPath><linearGradient id="linear-gradient-3" x1="-719.25" y1="-1810.17" x2="-717.34" y2="-1810.17" gradientTransform="matrix(29.65, 0, 0, -29.65, 21693.46, -53347.65)" xlink:href="#linear-gradient"/><clipPath id="clip-path-3"><path class="cls-1" d="M117.61,118.89C107.86,129,99.34,142.61,97.5,156.72c-1,7.66.57,14.25,2.79,21.55.75,2.5,1.68,5.77,3.87,7.42A23.28,23.28,0,0,1,117,166.37a46.85,46.85,0,0,1,12.16-4.3c3.77-.81,7.77-.78,11.6-1.58a61.34,61.34,0,0,0,21.74-9.15c8.84-6,12.31-18.29,9.13-28.4a27,27,0,0,0-24.07-18.47c-.41,0-.81,0-1.22,0-11.11,0-21.3,6.79-28.7,14.45"/></clipPath><linearGradient id="linear-gradient-4" x1="-729.86" y1="-1787.08" x2="-727.96" y2="-1787.08" gradientTransform="matrix(39.66, 0, 0, -39.66, 29042.94, -70728.85)" xlink:href="#linear-gradient"/><clipPath id="clip-path-4"><path class="cls-1" d="M193.69,151.55c-4.51,3.41-14.56,17.07-14.74,23.34,5.23-4.68,18.74-8.18,29.77-6.95,14,1.56,45.59,14.35,55-3,3.06-5.63,2.26-12.88-1.28-18-4.12-5.94-11.25-9.28-18.42-10.18a48.78,48.78,0,0,0-6.22-.38c-15.29,0-32.54,6.36-44.12,15.11"/></clipPath><linearGradient id="linear-gradient-5" x1="-731.39" y1="-1779.58" x2="-729.48" y2="-1779.58" gradientTransform="matrix(45.49, 0, 0, -45.49, 33449.91, -80793.93)" xlink:href="#linear-gradient"/><clipPath id="clip-path-5"><path class="cls-1" d="M330.32,267.2a11.28,11.28,0,0,0,7.42-7.33c1.12-2.95,2.07-6,3.47-8.86a8.45,8.45,0,0,1,7.29-5.07,6.67,6.67,0,0,1,6,2.71c.68.91.95,2-.16,2.65a3,3,0,0,1-2.64-.17c-2.44-1.89-5-1.78-6.54.91a32.28,32.28,0,0,0-2.76,6.61c-1.68,5.17-4.27,9.45-9.45,11.76-8.56,3.83-18.22-1.76-18.64-10.92a11,11,0,0,1,5-9.74,4.71,4.71,0,0,1,5.85.1,5.38,5.38,0,0,1,1.54,6.08,7.74,7.74,0,0,1-4.67,4.44c-1.11.45-2.23.83-3.35,1.23a8.53,8.53,0,0,0,8.54,6.09,10.67,10.67,0,0,0,3.17-.49M306.7,248.3c-1-.91-.48-1.92.26-2.85a44.11,44.11,0,0,1,10.07-9c1.88-1.26,3.86-2.42,5.86-3.49,1-.57,2.27-1.44,3.51-1.35a1.77,1.77,0,0,1,1.31,2.92,9.67,9.67,0,0,0-2.23,9.2c.42,1.75-1.12,2.76-2.93,2.06-1.52-.61-3.05-1.15-4.06-1.55-3,.12-5.24.67-7.14,2.27a12.76,12.76,0,0,0-1.49,1.45,2.4,2.4,0,0,1-1.74.94,2.1,2.1,0,0,1-1.42-.64m21.41-4.91c0-5,4.23-10.06,9.65-11.34,5.9-1.37,10.7.42,14.46,5.17a31.62,31.62,0,0,0,3.29,3.65,5.05,5.05,0,0,0,6,.95,5.25,5.25,0,0,0,2.93-5.33c0-.63-.21-1.41.1-1.83.41-.61,1.27-1.33,1.82-1.24a2.83,2.83,0,0,1,1.78,1.6c1.39,4.77-2.12,10.08-7.11,11-3.87.7-6.92-.9-9.43-3.68-1.12-1.22-2.1-2.55-3.22-3.75A9.83,9.83,0,0,0,337,236.34a8.62,8.62,0,0,0-5,7.18,3.42,3.42,0,0,0,.71,2.27,1.68,1.68,0,0,0,2.17.38c.34-.25.51-.86.17-1.14a1,1,0,0,0-.61-.19,2.21,2.21,0,0,1-1.6-2.46c.31-1.73,2.31-2,3.68-1.39a4.62,4.62,0,0,1,2.74,3.71,4.73,4.73,0,0,1-3.45,5,5.74,5.74,0,0,1-1.66.26,6.31,6.31,0,0,1-6-6.6m66.92-8.9a2.49,2.49,0,0,1,.57-2.15c3.09-2.48,4-5.74,3.79-9.47-.07-1.26.14-2.35,1.53-2.67s2,.59,2.36,1.68a23.11,23.11,0,0,0,2,4.28,25.25,25.25,0,0,0,7,7.64c1.07.77,1.51,1.85.65,2.73a2.86,2.86,0,0,1-2.61.57,17.44,17.44,0,0,0-7.09-2,18.52,18.52,0,0,0-5.83.52,11.35,11.35,0,0,1-1.18.13c-.3-.27-1.14-.67-1.24-1.22M338.16,225c-.37-1.58.63-2.17,1.88-2.8,5-2.54,10-5.18,15-7.77,1.09-.58,3.54-1.15,4,.47a2.19,2.19,0,0,1-.67,1.87c-.68.82-1.69,1.58-2.13,2.15a12.89,12.89,0,0,0-2.55,9.83,2.77,2.77,0,0,1-1.2,2.23,2.51,2.51,0,0,1-2.21-.61,9,9,0,0,0-8.67-2.67,3.31,3.31,0,0,1-.68.08c-1.36,0-2.27-.94-2.69-2.78m20.44,4.08c-1.39-.38-1.68-1.47-1.35-2.71,3.27-11.83,16-19.81,28.37-15,7.22,2.8,11.36,10.55,9.39,17.47-1.48,5.17-4.89,8.31-10.29,9.15l-1.31.21c1.58,2.65,1.24,3.5-1.58,4.08a29.65,29.65,0,0,0-11.36,5.14,3.19,3.19,0,0,1-2.67.32c-1.2-.53-1-1.68-.47-2.78,1.41-3.16,3.2-6.21,2.86-9.93,0-.44.87-1.41,1.2-1.33.82.15,2,.53,2.28,1.18,1.51,3.11,4.17,3.41,7.11,3.37-2.29-1-4.57-1.79-5.87-4.19a7,7,0,0,1,2.14-9.24c2.61-1.68,6.59-.86,8.7,1.81.73.91,1.24,1.87.18,2.82a1.91,1.91,0,0,1-3-.25c-.84-1-1.85-1.85-3.1-1.18-.76.44-1.77,1.55-1.68,2.19a5.48,5.48,0,0,0,1.75,3.28c2.42,1.83,6.73.91,9.17-1.68,4.29-4.51,2.82-12.38-2.92-15.89-6.44-3.94-15.45-2.4-20.82,3.91-1.87,2.21-3,5.05-4.37,7.7-.44.89-.87,1.67-1.78,1.67a2.22,2.22,0,0,1-.58-.09M363.33,193a140.51,140.51,0,0,0-33.42,17.55c-14.73,10.14-29.14,20.77-43.64,31.21-13,9.38-27.85,17.34-42.57,24.41-13.29,6.44-30.44,10.4-42,19.78-2.42,1.94-4.76,4.26-5.53,7.28a8.58,8.58,0,0,0,3.2,8.89c3.64,2.63,7.32,1.19,11-.2,4.67-1.74,39.16-15.19,43.7-17.31a226.88,226.88,0,0,0,26.2-14.19c7.87-5,14.93-11.09,22.56-16.41a3.78,3.78,0,0,1,2.61-.4,55.36,55.36,0,0,1,5.37,1.66c-1.7,11,3.12,18.46,14.44,21.91-.84.86-1.35,1.49-2,2-5.57,4.82-11.09,9.68-16.77,14.37-5.3,4.36-11.26,7.51-18.19,8.48a9.47,9.47,0,0,0-7.78,12.69,9.74,9.74,0,0,0,5,5.51,11.16,11.16,0,0,0,1.39.55,10.29,10.29,0,0,0,5.2.34c.82-.17,1.66-.21,2.48-.3l.17.49c-.53.38-1.08.76-1.64,1.12a32.26,32.26,0,0,0-8.55,8,20.77,20.77,0,0,0-1.26,2.07,17.86,17.86,0,0,0-1.24,3.05,53.47,53.47,0,0,0-2,11.55,5.43,5.43,0,0,1-3.94,5.32,50.85,50.85,0,0,0-8.39,4c-.15.11-.3.19-.47.3,3.16,1.18,6.34,2.23,9.56,3.2a.41.41,0,0,1,.17-.05c6.08-2,8.75-6.14,9.08-12.37a31.92,31.92,0,0,1,1.83-9.83c2.21-5.72,7.25-8.8,12.49-11.38,4-2,8.27-3.56,12.33-5.5a30.88,30.88,0,0,0,3.66-2.1,31.34,31.34,0,0,0,4-3.14,37,37,0,0,0,8.78-12.71,10.88,10.88,0,0,0,.46-1.47q1.51-5.81-4.42-6.06a9.65,9.65,0,0,0-7.32,2.4c-5.35,4.8-11.05,9.21-17.66,12.12-3.43,1.51-7.18,2.34-10.82,3.47a2.19,2.19,0,0,1-1.64,0,3.52,3.52,0,0,1-1.45-1.94,2.19,2.19,0,0,1,1.37-1.64c11.89-1.62,20.79-8.71,29.35-16.22,9.77-8.57,19.28-17.49,29.05-26,10.83-9.5,22.47-17.78,36.13-22.87a71.28,71.28,0,0,1,19.47-4.46,57.38,57.38,0,0,1,14.52.67,3.72,3.72,0,0,0,.75,0c-.14-.5-.2-1-.37-1.41-2.93-7.15-5.85-14.35-10.19-20.81-.4-.57-.8-1.14-1.2-1.69-5.57-7.7-12.46-13.51-22.05-15.36-7.62-1.49-14.92.29-21.85,3.33-13.41,5.91-25.72,13.74-37.59,22.26-12.77,9.18-25.37,18.63-38.11,27.8C271.73,265,227.2,285.69,211,292c-2.42.95-4.9,1.77-7.36,2.64-1.18.44-2.32.52-2.76-1s.3-2.23,1.66-2.74c5.58-2.19,41.15-15.87,46.6-18.39a193.81,193.81,0,0,0,32.11-19.2c15.11-10.92,30-22.07,45.23-32.85,11.48-8.1,23.56-15.21,36.68-20.36,8.71-3.39,17.59-4.4,26.55-.83a41.45,41.45,0,0,1,17.47,13.64c.32.4.61.78.91,1.2,5.59,7.54,9.13,16.1,12.56,24.69.53,1.38,1.14,2.71,1.52,4.1.54,1.75-.55,3-2.32,2.56a57.18,57.18,0,0,0-19.74-1.4c-12.08,1.24-23.34,6.27-34.18,13.19a162.18,162.18,0,0,0-22.22,17.57,2.37,2.37,0,0,0-.76,2.78c3.1,11.83,4.8,23.85,4,36.15-.39,5.65-2.5,8.19-7.95,9.69-2.3.63-3.73,1.09-4.49,1.79-1.11,1-.84,2.5.17,5.7a7.86,7.86,0,0,1,.4,2.16c.24,4.39-3.53,7.05-7.62,6.89-2.14-.05-4.22-.89-6.35-1.16a16.24,16.24,0,0,0-5.2-.09c-1.95.38-2.46,1.82-1.74,3.69.4,1,.92,1.95,1.41,2.9,2,3.9,1,8.15-2.68,10.49a44.68,44.68,0,0,1-6.48,3.17,20.61,20.61,0,0,0-6.33,4.19c-.57.57-1.12,1.16-1.62,1.77,1.79.29,3.59.56,5.38.8,2.17.29,4.36.54,6.55.77,1.11-.6,2.31-1.09,3.47-1.59,6.78-2.93,11.58-7.39,12.06-15.33a2.41,2.41,0,0,1,1.32-1.55,5.49,5.49,0,0,1,2.24-.27c5.24-.05,11.8-3,13.93-9.39a14.29,14.29,0,0,0,.65-5.6.74.74,0,0,0,0-.21,2.5,2.5,0,0,1,1.75-2.78c5.45-2.21,8.9-6.35,9.59-12.06a90.45,90.45,0,0,0,.51-17.25c-.48-6.42-1.85-12.76-2.89-19.15-.23-1.35-.44-2.61.83-3.64,8.67-7.1,17.29-14.29,27.58-19.13a73.75,73.75,0,0,1,14.44-5.18,46.92,46.92,0,0,1,22.77.08,12.2,12.2,0,0,0,1.29.25c5.49.8,10.1-2.58,10.71-8.1a6.16,6.16,0,0,0,0-1.36,20.19,20.19,0,0,0-1.14-5.67c-1.11-3.36-2.61-6.6-4-9.86-3.77-8.55-7.95-16.88-14.49-23.74-1-1.1-2.09-2.15-3.18-3.14-8.52-7.78-18-11.82-28.49-11.83A48.52,48.52,0,0,0,363.33,193"/></clipPath><linearGradient id="linear-gradient-6" x1="-742.07" y1="-1746.91" x2="-740.16" y2="-1746.91" gradientTransform="matrix(123.23, 0, 0, -123.23, 91642.69, -214996.44)" xlink:href="#linear-gradient"/><clipPath id="clip-path-6"><path class="cls-1" d="M326.11,291.38l1.62.39c4.54,1.08,6.69,4.23,5.95,8.86-.93,5.75-3.91,10.53-7.66,14.86-.65.74-1.32,1.43-2,2.09a34.06,34.06,0,0,1-4.21,3.51,44.5,44.5,0,0,1-8.79,4.82,124.93,124.93,0,0,0-12.71,6c-5.39,3-8.17,7.68-8.23,14a31.63,31.63,0,0,1-1.35,8.61,11.81,11.81,0,0,1-6.17,7c2.42.65,4.86,1.24,7.29,1.8,1.49.32,3,.62,4.48.91a19.69,19.69,0,0,1,1.72-2.19,23.78,23.78,0,0,1,9.22-6.69,29.52,29.52,0,0,0,5.26-2.59c2.32-1.51,2.68-3.22,1.6-5.77-.35-.78-.76-1.59-1.13-2.4-2.44-5.17.23-9.76,6-10a31.23,31.23,0,0,1,5.6.8,34.84,34.84,0,0,0,5.43.72c2.34,0,3.45-1.44,3.05-3.77a25.4,25.4,0,0,0-.71-2.86c-.09-.34-.19-.66-.26-1a6,6,0,0,1,1.35-5.65,6.41,6.41,0,0,1,2.15-1.53,30.06,30.06,0,0,1,4.33-1.43c3.54-.88,4.89-2.21,5.2-5.83A90.13,90.13,0,0,0,342,291.67c-.68-4.17-1.61-8.32-2.44-12.52-4.61,4.21-9,8.21-13.45,12.23"/></clipPath><linearGradient id="linear-gradient-7" x1="-722.61" y1="-1804.23" x2="-720.71" y2="-1804.23" gradientTransform="matrix(31.93, 0, 0, -31.93, 23355.15, -57286.35)" gradientUnits="userSpaceOnUse"><stop offset="0" stop-color="#ee7235"/><stop offset="0.18" stop-color="#ef7735"/><stop offset="0.4" stop-color="#f08734"/><stop offset="0.65" stop-color="#f3a033"/><stop offset="0.91" stop-color="#f7c432"/><stop offset="1" stop-color="#f9d131"/></linearGradient><clipPath id="clip-path-7"><path class="cls-1" d="M235.51,181.8a67.52,67.52,0,0,0-12.64,6.1,41.87,41.87,0,0,0-5,3.87c-1.34,1.14-3.11,4-4.62,4.69,6.47-2.87,12.25-1,18.74.21a45.62,45.62,0,0,1,18.31,8.4c5.06,3.79,9.35,8.55,14.48,12.25s11.56,6.33,17.74,5c7.63-1.68,13-9.52,13.06-17.33s-4.53-15.19-10.86-19.77-14.19-6.63-22-7.2c-1.54-.11-3.08-.17-4.63-.17a66.69,66.69,0,0,0-22.55,4"/></clipPath><linearGradient id="linear-gradient-8" x1="-730.12" y1="-1782.76" x2="-728.21" y2="-1782.76" gradientTransform="matrix(43.21, 0, 0, -43.21, 31764.5, -76839.75)" xlink:href="#linear-gradient"/><clipPath id="clip-path-8"><path class="cls-1" d="M299,310.74a17.69,17.69,0,0,0-10.75,5.74,19.58,19.58,0,0,0-2.63,3.74,21.52,21.52,0,0,0-2.13,5.88,15.7,15.7,0,0,0-.08,6.4,20.77,20.77,0,0,1,1.26-2.07,14.92,14.92,0,0,1,.06-2.31,17.9,17.9,0,0,1,2.28-7.35,16.7,16.7,0,0,1,3.3-4,16.13,16.13,0,0,1,11-4.39,18.34,18.34,0,0,1,9.07,2.54c2.08,1.14,4.08,2.42,6,3.75,1.1.76,2.21,1.56,3.3,2.4,2.21,1.64,4.34,3.35,6.48,5.11,1.35,1.1,2.7,2.21,4.07,3.29,1.57,1.24,3.15,2.46,4.77,3.63a77.3,77.3,0,0,0,8.34,5.29l.5.27a51.9,51.9,0,0,0,15.53,5.47c4,.68,7.94,1.14,11.91,1.71,2,.29,2,.33,2,2.37q0,10.51,0,21c0,1.49.1,1.58,1.57,1.6h6.61c2.19,0,2.19,0,2.19-2.19V347.23c0-1.41.11-1.5,1.49-1.54h17.2q.66,0,1.32-.06a.66.66,0,0,0,.57-.63.68.68,0,0,0-.38-.78,5.82,5.82,0,0,0-1-.32,13.75,13.75,0,0,0-4.34-.25,28.86,28.86,0,0,1-3.83.15c-2.18,0-4.37,0-6.55,0-4.38,0-8.76,0-13.15-.18a58.93,58.93,0,0,1-11.4-1.39,49,49,0,0,1-10.8-3.91l0,0a4.26,4.26,0,0,1-.63-.36h0l-.13-.09-2.51-1.47a.48.48,0,0,1-.15,0l-.14-.07c-.17-.1-.36-.21-.53-.33l-.36-.21-.48-.3a.42.42,0,0,0-.12-.08s0,0,0,0c-1.26-.8-2.48-1.64-3.68-2.53-2.63-1.91-5.14-4-7.66-6-.63-.52-1.28-1-1.9-1.55-1-.82-2.06-1.64-3.11-2.43-2.4-1.85-4.86-3.62-7.43-5.25-.21-.13-.44-.28-.67-.41-.91-.58-1.85-1.13-2.8-1.62a40.35,40.35,0,0,0-7.83-3.36,33.71,33.71,0,0,0-10.05-1.72,24.84,24.84,0,0,0-3.63.27"/></clipPath><linearGradient id="linear-gradient-9" x1="-826.88" y1="-1754" x2="-824.97" y2="-1754" gradientTransform="matrix(0, -31.69, -31.69, 0, -55248.45, -25836.63)" xlink:href="#linear-gradient-7"/><clipPath id="clip-path-9"><path class="cls-1" d="M419.68,403.21a10.43,10.43,0,0,1-6.41-6.11,31.61,31.61,0,0,1-2.43-12.25,30.52,30.52,0,0,1,3-13.18c2.61-5.55,8-8.12,14.16-6.77a15.28,15.28,0,0,1,5.54,2.43,4.67,4.67,0,0,1,2.1,4.05v10.71h0c0,3.4,0,6.79,0,10.19a23.4,23.4,0,0,1,.13,3,8.5,8.5,0,0,1-3.32,5.53,12.84,12.84,0,0,1-8.26,3.17,13.9,13.9,0,0,1-4.51-.8m1.93-41a23.07,23.07,0,0,0-16,10,24.69,24.69,0,0,0-4.39,16.52A25.88,25.88,0,0,0,410,407,14.26,14.26,0,0,0,428,408.31a27.56,27.56,0,0,0,6.49-6.53c.27-.36.48-1,1.06-.79s.38.84.38,1.31c0,2.11,0,4.23,0,6.34,0,1.22.16,1.36,1.39,1.37,2.16,0,4.32,0,6.48,0s2.21,0,2.21-2.15V382.75q0-9,0-18c0-1.49-.1-1.59-1.57-1.59q-3.57,0-7.14,0c-1.16,0-1.24.1-1.53,1.21,0,.16-.06.34-.11.51-.2.74-.28.77-1,.42s-1.56-.83-2.36-1.19a20.26,20.26,0,0,0-8.47-2.05,16.34,16.34,0,0,0-2.19.15"/></clipPath><linearGradient id="linear-gradient-10" x1="-846.21" y1="-1761.85" x2="-844.3" y2="-1761.85" gradientTransform="matrix(0, -25.62, -25.62, 0, -44722.8, -21272.53)" xlink:href="#linear-gradient-7"/><clipPath id="clip-path-10"><path class="cls-1" d="M490.68,362.2a18.37,18.37,0,0,0-11.49,4.51,56.07,56.07,0,0,0-4.48,4.11c-.29.29-.51.73-1.1.73a18.55,18.55,0,0,1-.11-3.41c0-1.37,0-2.73,0-4.1,0-.92-.2-1.05-1.1-1.13-.18,0-.35,0-.53,0H458.09a1.94,1.94,0,0,0-1.26.21c.15.56.64.64,1,.83a9.43,9.43,0,0,1,5.26,7.89c.05.65.05,1.32.06,2v34.52c0,1.64.06,1.7,1.73,1.7,2.2,0,4.41,0,6.61,0,2,0,2,0,2-2.07q0-12.42,0-24.86c0-1.72,0-3.44,0-5.16a6,6,0,0,1,1.86-4.63c1.67-1.57,3.23-3.25,4.86-4.86a18.91,18.91,0,0,1,3.53-2.77,6.87,6.87,0,0,1,8.56.69A10.7,10.7,0,0,1,495,370.6a27,27,0,0,1,1.76,10c0,9,0,18.07,0,27.11,0,.44,0,.88,0,1.32,0,.64.29,1,1,1,2.69,0,5.38,0,8.07,0,.86,0,1.15-.36,1.26-1.23a7,7,0,0,0,0-.79c-.06-10.58.3-21.16-.24-31.73a14.35,14.35,0,0,0-2.14-7.14c-3.19-5-8-6.9-13.63-6.9h-.39"/></clipPath><linearGradient id="linear-gradient-11" x1="-848.22" y1="-1763.69" x2="-846.31" y2="-1763.69" gradientTransform="matrix(0, -25.1, -25.1, 0, -43792.56, -20883.15)" xlink:href="#linear-gradient-7"/><clipPath id="clip-path-11"><path class="cls-1" d="M193.44,372.4c-.82-.07-.94-.21-.7-1,.33-1,.73-2.07,1.09-3.11q2.71-8,5.43-16a2,2,0,0,1,.58-1.14c.56,1.57,1.11,3.08,1.63,4.61,1.72,5,3.41,10,5.11,15,0,.05,0,.08,0,.12.47,1.47.42,1.56-1.17,1.56h-12m.35-31.91s-.08.13-.17.25c.66.36,1.33.68,1.95,1.07a5.61,5.61,0,0,1,2.75,6.67,27.83,27.83,0,0,1-.8,2.8q-5.52,16.14-11.09,32.27-3.39,9.88-6.77,19.78a6.55,6.55,0,0,1-.27.74c-.1.25-.25.37-.44.35l2.5,1.47c-.37-.32-.28-.64,0-1.57.5-1.46,1-2.91,1.52-4.37,2.58-7.61,5.13-15.21,7.71-22.81.67-2,1.39-2.55,3.48-2.52,1.5,0,3,.16,4.5.2,2,.08,4-.11,5.94-.19,2.9-.12,3.45.34,4.39,3.12q4.24,12.45,8.49,24.91c.35,1,.7,2.1,1.15,3.1a3.18,3.18,0,0,0,2.43,2.19,38.66,38.66,0,0,0,6.45.22c.8,0,1.6,0,2.41,0s.94-.27.74-1c-.3-1.16-.63-2.3-1-3.43q-5.67-16.8-11.37-33.58-3.57-10.53-7.19-21a18.4,18.4,0,0,0-1.85-3.94,9.86,9.86,0,0,0-6.92-4.65,20.73,20.73,0,0,0-3.33-.24c-1.74,0-3.48.15-5.23.24"/></clipPath><linearGradient id="linear-gradient-12" x1="-818.65" y1="-1749.16" x2="-816.74" y2="-1749.16" gradientTransform="matrix(0, -35.66, -35.66, 0, -62178.11, -28788.37)" xlink:href="#linear-gradient-7"/><clipPath id="clip-path-12"><path class="cls-1" d="M289.76,362.43c-.23.06-.55.07-.57.42,0,0,0,.11.06.12a6.56,6.56,0,0,0,.69.37,11.58,11.58,0,0,1,5.93,5.42c.43.77.83,1.55,1.2,2.36q3,6.42,5.91,12.85,4.95,10.81,9.92,21.64a14,14,0,0,0,1.72,3.27c1.09,1.32,1.6,1.31,2.71,0a5.4,5.4,0,0,0,1-1.56c.24-.62.48-1.24.73-1.84q6.24-14.88,12.49-29.76c.13-.31.16-.7.69-1,.24.44.47.81.65,1.21q3.11,6.64,6.19,13.31,4.13,8.94,8.22,17.9a7.58,7.58,0,0,0,1.88,2.36.68.68,0,0,0,1.13-.07,10.63,10.63,0,0,0,1.63-2.39c3-7.16,6-14.3,9-21.45q4.31-10.25,8.58-20.49a9.12,9.12,0,0,0,.64-2c.06-.31.09-.62-.23-.82s-.68,0-.92.26a10.27,10.27,0,0,0-1.57,2.44c-1.33,3.17-2.68,6.34-4,9.51q-4.65,11.08-9.32,22.19c-.12.3-.14.71-.58.79-.38-.16-.42-.55-.56-.86-1.88-4-3.77-8.07-5.63-12.11-2.17-4.73-4.32-9.46-6.49-14.19-.92-2-1.86-4-2.82-6a3.47,3.47,0,0,0-3.05-2.16c-1.72-.13-3.45-.11-5.17-.09h-2.1a2.06,2.06,0,0,0-.26,0c-.43.09-.62.33-.45.76.09.25.2.48.31.73.91,2.05,1.79,4.12,2.75,6.15a4.38,4.38,0,0,1,0,3.93c-1.13,2.53-2.13,5.13-3.2,7.69q-3.17,7.63-6.37,15.25c-.12.3-.13.72-.62.81a2.25,2.25,0,0,1-.54-.86c-.6-1.28-1.2-2.55-1.79-3.84q-3.3-7.21-6.6-14.43c-1.24-2.72-2.41-5.49-3.8-8.15-2.82-5.42-7.51-8.34-13.11-8.34a17.89,17.89,0,0,0-4.32.55"/></clipPath><linearGradient id="linear-gradient-13" x1="-847.9" y1="-1760.7" x2="-846" y2="-1760.7" gradientTransform="matrix(0, -25.18, -25.18, 0, -44010.14, -20942.89)" xlink:href="#linear-gradient-7"/><clipPath id="clip-path-13"><path class="cls-1" d="M255.83,405.7a17.07,17.07,0,0,1-5.74-6.62,27.51,27.51,0,0,1-3-11.67,29.82,29.82,0,0,1,2.4-13.8,18.52,18.52,0,0,1,5.78-7.44,10.36,10.36,0,0,1,13.49.29,19.59,19.59,0,0,1,5.82,8.21,36.88,36.88,0,0,1,2.13,11.61c-.36,5.29-1.3,10.49-4.57,15a17.21,17.21,0,0,1-4.35,4.37,10.47,10.47,0,0,1-11.93.05m.26-43.67a24.88,24.88,0,0,0-14.28,8.75A22.6,22.6,0,0,0,236.67,388a23.65,23.65,0,0,0,6.46,14.18A24,24,0,0,0,261.7,410a22.2,22.2,0,0,0,3.16,0,25.2,25.2,0,0,0,16.91-9.4,22.51,22.51,0,0,0,5-17.93,23.84,23.84,0,0,0-10.5-16.77,24.5,24.5,0,0,0-14.14-4.49,28.27,28.27,0,0,0-6.05.68"/></clipPath><linearGradient id="linear-gradient-14" x1="-846.51" y1="-1758.97" x2="-844.61" y2="-1758.97" gradientTransform="matrix(0, -25.54, -25.54, 0, -44663.63, -21210.56)" xlink:href="#linear-gradient-7"/><clipPath id="clip-path-14"><path class="cls-1" d="M515.22,363.33c.26.44.74.46,1.12.65a9,9,0,0,1,5,6.32,16.73,16.73,0,0,1,.34,3.54q0,16.07,0,32.15c0,.83,0,1.67,0,2.51.07,1.31.28,1.51,1.6,1.52h6.49c2.19,0,2.19,0,2.19-2.22V365.33c0-.35,0-.71,0-1.05-.08-.86-.27-1-1.16-1.11H516.36l-.51,0a.9.9,0,0,0-.63.2"/></clipPath><linearGradient id="linear-gradient-15" x1="-850.2" y1="-1765.22" x2="-848.3" y2="-1765.22" gradientTransform="matrix(0, -24.61, -24.61, 0, -42926, -20517.1)" xlink:href="#linear-gradient-7"/><clipPath id="clip-path-15"><path class="cls-1" d="M374.48,373a.93.93,0,0,0-1,1c0,.4,0,.8,0,1.19v16.41c0,5.64,0,11.29,0,16.93,0,1.38.14,1.51,1.52,1.52,1.9,0,3.79,0,5.69,0h2.12a.88.88,0,0,0,1-1c0-.22,0-.44,0-.66q0-13.77,0-27.52a12.18,12.18,0,0,0-.7-4,5.46,5.46,0,0,0-4-3.67,9.88,9.88,0,0,0-2.47-.26c-.71,0-1.42,0-2.13.06"/></clipPath><linearGradient id="linear-gradient-16" x1="-877.03" y1="-1771.74" x2="-875.13" y2="-1771.74" gradientTransform="matrix(0, -19.48, -19.48, 0, -34133.5, -16673.95)" xlink:href="#linear-gradient-7"/><clipPath id="clip-path-16"><path class="cls-1" d="M526.87,343c-3.75.08-6.77,2.79-6.7,6.4a6.86,6.86,0,0,0,6.77,6.91,7,7,0,0,0,6.65-6.76A6.62,6.62,0,0,0,527,343h-.15"/></clipPath><linearGradient id="linear-gradient-17" x1="-1103.39" y1="-1861.68" x2="-1101.48" y2="-1861.68" gradientTransform="matrix(0, -6.99, -6.99, 0, -12478.36, -7351.71)" xlink:href="#linear-gradient-7"/><clipPath id="clip-path-17"><path class="cls-1" d="M401,220.15c-1.38.32-1.62,1.39-1.56,2.66.16,3.72-.73,7-3.85,9.42a2.6,2.6,0,0,0-.57,2.15c.19,1.09,1.57,1.3,2.41,1.1a17.82,17.82,0,0,1,12.9,1.61,2.81,2.81,0,0,0,2.62-.55c.86-.88.42-2-.62-2.73a24.72,24.72,0,0,1-9-12c-.33-.94-.85-1.75-1.85-1.75a2.27,2.27,0,0,0-.5.06"/></clipPath><linearGradient id="linear-gradient-18" x1="-1011.78" y1="-1880.48" x2="-1009.88" y2="-1880.48" gradientTransform="matrix(8.46, 0, 0, -8.46, 8954.46, -15677.21)" xlink:href="#linear-gradient-7"/><clipPath id="clip-path-18"><path class="cls-1" d="M369.94,231.63c-.73.89-.5,2.25-.48,3.28a22,22,0,0,1-.37,5.38,19,19,0,0,1-2.1,5.33c-.78,1.35-2,2.87-.73,4.4,1.4,1.74,3.2-.59,4.25-1.52a32.24,32.24,0,0,1,4.83-3.73,25.93,25.93,0,0,1,7.92-3.12c1.21-.26,2.27-.82,2.12-2.3s-1.28-1.91-2.65-2a13.88,13.88,0,0,1-5.88-1.66,10.88,10.88,0,0,1-2.27-1.78c-.71-.69-1.1-1.64-1.83-2.31a2.22,2.22,0,0,0-1.45-.54,1.73,1.73,0,0,0-1.36.58"/></clipPath><linearGradient id="linear-gradient-19" x1="-984.89" y1="-1811.24" x2="-982.99" y2="-1811.24" gradientTransform="matrix(0, -10.28, -10.28, 0, -18241.63, -9872.62)" xlink:href="#linear-gradient-7"/><clipPath id="clip-path-19"><path class="cls-1" d="M357.35,226.32c-.34,1.24-.06,2.33,1.33,2.71s1.83-.5,2.38-1.57c1.35-2.62,2.5-5.48,4.4-7.66,5.41-6.28,14.42-7.75,20.83-3.77,5.73,3.54,7.12,11.41,2.83,15.89-2.48,2.58-6.78,3.47-9.17,1.62-1-.76-2-2.5-1.63-3.77a3,3,0,0,1,2.26-1.9c1.34-.16,1.89,1.11,2.77,1.8a2,2,0,0,0,2.63-.12,1.81,1.81,0,0,0,.48-1.9,4.53,4.53,0,0,0-1.7-2,7.49,7.49,0,0,0-2.46-1.31,6.2,6.2,0,0,0-5.15.54,7,7,0,0,0-2.2,9.23,8.47,8.47,0,0,0,5.33,3.9,12.59,12.59,0,0,0,12.46-4.31,13.82,13.82,0,0,0,2.32-4.69c2-6.9-2.08-14.69-9.27-17.53a20.55,20.55,0,0,0-7.53-1.46c-9.61,0-18.24,6.93-20.91,16.31"/></clipPath><linearGradient id="linear-gradient-20" x1="-902.86" y1="-1816.07" x2="-900.96" y2="-1816.07" gradientTransform="matrix(14.44, 0, 0, -14.44, 13401.88, -25999.96)" xlink:href="#linear-gradient-7"/><clipPath id="clip-path-20"><path class="cls-1" d="M355.17,214.62c-5,2.57-10,5.18-15,7.68-1.26.63-2.26,1.21-1.9,2.78.52,2.35,1.89,2.9,4.13,2.61a9.06,9.06,0,0,1,4.85.68,8.91,8.91,0,0,1,2.44,1.63c.57.55,1,1.17,1.84,1.23a2.11,2.11,0,0,0,2.16-2.28,13.32,13.32,0,0,1,1-7.24c.92-2,2.36-3.06,3.76-4.7a1.82,1.82,0,0,0,.44-2.25,1.66,1.66,0,0,0-1.53-.74,5.18,5.18,0,0,0-2.23.6"/></clipPath><linearGradient id="linear-gradient-21" x1="-984.01" y1="-1861.46" x2="-982.11" y2="-1861.46" gradientTransform="matrix(9.46, 0, 0, -9.46, 9652.62, -17392.68)" xlink:href="#linear-gradient-7"/><clipPath id="clip-path-21"><path class="cls-1" d="M323,233c-2,1.07-4,2.21-5.89,3.46a44.17,44.17,0,0,0-10.1,8.89c-.74.92-1.28,1.91-.29,2.85a2,2,0,0,0,3.16-.28,14.78,14.78,0,0,1,1.51-1.45,8.5,8.5,0,0,1,5.64-1.93c2.22,0,4.3,1.18,6.52,1.46a1.73,1.73,0,0,0,2-2.22,9.85,9.85,0,0,1,1.16-7.66c.31-.5.81-1,1.16-1.49a1.82,1.82,0,0,0-1.31-2.95h-.22A7.61,7.61,0,0,0,323,233"/></clipPath><linearGradient id="linear-gradient-22" x1="-960.01" y1="-1845.85" x2="-958.11" y2="-1845.85" gradientTransform="matrix(10.59, 0, 0, -10.59, 10476.19, -19312.06)" xlink:href="#linear-gradient-7"/><clipPath id="clip-path-22"><path class="cls-1" d="M337.82,232.13c-5.42,1.23-9.71,6.27-9.72,11.26,0,4.39,3.76,7.53,7.64,6.38a4.63,4.63,0,0,0,.78-8.73c-1.37-.6-3.37-.37-3.7,1.38a2.2,2.2,0,0,0,.71,2c.43.39,1.48.39,1.65,1s-.5,1-1,1.09a1.83,1.83,0,0,1-1.5-.64,3.34,3.34,0,0,1-.66-2.29c.06-3.07,2.36-5.86,5.07-7.14a9.83,9.83,0,0,1,11.32,2.32c1.11,1.22,2.08,2.56,3.18,3.78,2.51,2.79,5.53,4.4,9.42,3.72a9.18,9.18,0,0,0,6.46-4.83,9.57,9.57,0,0,0,1.07-4.75c-.08-1.4-1.32-3.74-3.1-2.72-.87.5-1,2-.95,2.82a5.28,5.28,0,0,1-3,5.29,5,5,0,0,1-6-1,31.83,31.83,0,0,1-3.27-3.69c-2.93-3.74-6.51-5.67-10.78-5.67a15.8,15.8,0,0,0-3.65.44"/></clipPath><linearGradient id="linear-gradient-23" x1="-943.15" y1="-1837.76" x2="-941.24" y2="-1837.76" gradientTransform="matrix(11.5, 0, 0, -11.5, 11185.17, -20896.47)" xlink:href="#linear-gradient-7"/><clipPath id="clip-path-23"><path class="cls-1" d="M318.45,257.61a.89.89,0,0,1,0-.56c.07-.37.08-.73.18-1.1a4.08,4.08,0,0,1,.84-1.56c.66-.81,2-1.9,2.94-.94,1.2,1.17-.73,2.44-1.61,3-.37.24-.75.45-1.14.66a3.64,3.64,0,0,1-1.1.54.11.11,0,0,1-.11-.06m30-11.53a8.44,8.44,0,0,0-7.33,5c-1.41,2.82-2.38,5.87-3.52,8.82a11.29,11.29,0,0,1-7.46,7.3c-4.82,1.44-9.67-.62-11.33-4.68a1,1,0,0,1,.59-1.33c.81-.29,1.63-.56,2.42-.89a7.8,7.8,0,0,0,4.71-4.42,5.36,5.36,0,0,0-1.52-6.07,4.71,4.71,0,0,0-5.84-.14,11,11,0,0,0-5,9.7c.37,9.17,10,14.8,18.57,11,5.2-2.28,7.82-6.55,9.51-11.69a33.17,33.17,0,0,1,2.81-6.6c1.6-2.67,4.12-2.75,6.53-.85a3,3,0,0,0,2.66.17c1.11-.57.83-1.73.16-2.64a6.51,6.51,0,0,0-5.45-2.75l-.49,0"/></clipPath><linearGradient id="linear-gradient-24" x1="-839.61" y1="-1830.89" x2="-837.7" y2="-1830.89" gradientTransform="matrix(18.7, 0, 0, -18.7, 16021.16, -33980.33)" xlink:href="#linear-gradient-7"/><clipPath id="clip-path-24"><path class="cls-1" d="M89.88,276.86c-1.75-9.33.38-18.89,4.27-27.41a89.73,89.73,0,0,1,8-14.36c5.11-7.24,11.86-13.35,20-12.45,4.22.47,8.28,2.84,9.64,7.05,2.19,6.79-2.83,10.69-7.82,13.75-8.31,5.1-17.35,9.17-23.88,16.53-6.7,7.54-7.75,13.81-8.91,23.62.22-1.86-.91-4.78-1.27-6.73m32.73-81.64c-24,10.6-42.18,35.36-54,57.9C60,269.48,58.05,289.94,58.05,308.19c0,95.52,81.4,173,181.83,173a187.34,187.34,0,0,0,106.61-32.83l.06,0c1.2-.82,2.4-1.68,3.58-2.53,2.38-2.12,3.3-4.6-7.43-3.43-42.91,5.06-39.52-5.09-39.52-5.09-.57-39.52-61.54-18.06-41.21-18.06,13.28,0,16.44,9.88,17,16.74a9.37,9.37,0,0,1-5.18,9.17c-17.19,8.46-73.68,28.89-105-48.49a159.26,159.26,0,0,1-8.67-25.44,124,124,0,0,1-2.49-47.52,121.39,121.39,0,0,1,12.91-38.91A144.31,144.31,0,0,1,191.66,255a154.57,154.57,0,0,1,22-19.95c3-2.19,6-4.26,9.13-6.15,1.35-.8,2.75-1.75,4.12-2.44,3.9-1.94,8.55-1.85,12-4.93,2.67-2.43,1.57-6.46-.47-8.86-5-5.83-13.82-7.76-21.08-8.22-11.18-.72-22.67,1.41-33.32,4.71a2,2,0,0,1-2.37-1,17.66,17.66,0,0,0-1.58-2.33c-6.92-8.91-19.11-12.42-29.87-14.08a53,53,0,0,0-8-.61,48.19,48.19,0,0,0-19.57,4"/></clipPath><linearGradient id="linear-gradient-25" x1="-743.77" y1="-1743.12" x2="-741.86" y2="-1743.12" gradientTransform="matrix(154.09, 0, 0, -154.09, 114666.36, -268263.22)" xlink:href="#linear-gradient"/></defs><title>Asset 3</title><g id="Layer_2" data-name="Layer 2"><g id="Layer_1-2" data-name="Layer 1"><circle class="cls-2" cx="291.94" cy="291.94" r="284.44"/><g class="cls-3"><rect class="cls-4" x="384.51" y="276.31" width="69.57" height="22.4"/></g><g class="cls-5"><rect class="cls-6" x="368.53" y="313.32" width="56.49" height="16.72"/></g><g class="cls-7"><rect class="cls-8" x="96.5" y="104.44" width="78.28" height="81.25"/></g><g class="cls-9"><rect class="cls-10" x="178.95" y="136.44" width="87.84" height="45.85"/></g><g class="cls-11"><rect class="cls-12" x="195.36" y="190.04" width="235.41" height="176.49"/></g><g class="cls-13"><rect class="cls-14" x="282.56" y="279.15" width="61.2" height="85.06"/></g><g class="cls-15"><rect class="cls-16" x="213.21" y="177.82" width="82.39" height="45.83"/></g><g class="cls-17"><rect class="cls-18" x="283.01" y="310.47" width="121.41" height="60.39"/></g><g class="cls-19"><rect class="cls-20" x="400.76" y="362.07" width="45.23" height="50.13"/></g><g class="cls-21"><rect class="cls-22" x="456.83" y="362.2" width="50.55" height="47.84"/></g><g class="cls-23"><rect class="cls-24" x="178.95" y="340.25" width="51.94" height="68.02"/></g><g class="cls-25"><rect class="cls-26" x="289.19" y="361.88" width="81.08" height="48.31"/></g><g class="cls-27"><rect class="cls-28" x="235.98" y="361.35" width="51.78" height="48.76"/></g><g class="cls-29"><rect class="cls-30" x="515.22" y="363.13" width="16.76" height="46.91"/></g><g class="cls-31"><rect class="cls-32" x="373.45" y="372.9" width="10.35" height="37.12"/></g><g class="cls-33"><rect class="cls-34" x="520.1" y="343" width="13.58" height="13.32"/></g><g class="cls-35"><rect class="cls-36" x="394.16" y="217.91" width="20.43" height="21.7" transform="translate(107.38 586.03) rotate(-79.76)"/></g><g class="cls-37"><rect class="cls-38" x="365.02" y="231.04" width="20.52" height="20.73" transform="translate(-0.3 0.47) rotate(-0.07)"/></g><g class="cls-39"><rect class="cls-40" x="359.2" y="202.23" width="35.69" height="44.59" transform="translate(89.07 555.65) rotate(-79.76)"/></g><g class="cls-41"><rect class="cls-42" x="338.25" y="210.54" width="20.84" height="24.24" transform="translate(67.57 526.2) rotate(-79.76)"/></g><g class="cls-43"><rect class="cls-44" x="306.35" y="227.75" width="21.22" height="25.29" transform="translate(24.05 509.57) rotate(-79.76)"/></g><g class="cls-45"><rect class="cls-46" x="335.29" y="219.66" width="26.13" height="43.29" transform="translate(48.97 541.22) rotate(-79.76)"/></g><g class="cls-47"><rect class="cls-48" x="312.26" y="235.2" width="44.87" height="49.85" transform="translate(-56.73 422.83) rotate(-60.43)"/></g><g class="cls-49"><rect class="cls-50" x="58.05" y="191.18" width="295.38" height="289.97"/></g></g></g></svg>