<svg xmlns="http://www.w3.org/2000/svg" xmlns:xlink="http://www.w3.org/1999/xlink" width="119.414" height="64" viewBox="0 0 119.414 64">
  <defs>
    <linearGradient id="linear-gradient" y1="0.5" x2="1" y2="0.5" gradientUnits="objectBoundingBox">
      <stop offset="0" stop-color="#2c6ce4"/>
      <stop offset="1" stop-color="#009abb"/>
    </linearGradient>
    <linearGradient id="linear-gradient-2" x1="0" y1="0.5" x2="1" y2="0.5" xlink:href="#linear-gradient"/>
    <linearGradient id="linear-gradient-3" x1="0" y1="0.5" x2="1" y2="0.5" xlink:href="#linear-gradient"/>
    <linearGradient id="linear-gradient-4" x1="0" y1="0.5" x2="0.999" y2="0.5" xlink:href="#linear-gradient"/>
    <linearGradient id="linear-gradient-5" x1="0" y1="0.5" x2="1" y2="0.5" xlink:href="#linear-gradient"/>
    <linearGradient id="linear-gradient-6" x1="0" y1="0.5" x2="1" y2="0.5" xlink:href="#linear-gradient"/>
    <linearGradient id="linear-gradient-7" x1="0" y1="0.5" x2="1" y2="0.5" xlink:href="#linear-gradient"/>
    <linearGradient id="linear-gradient-8" x1="0" y1="0.5" x2="1.002" y2="0.5" xlink:href="#linear-gradient"/>
    <linearGradient id="linear-gradient-9" x1="-0.002" y1="0.507" x2="0.998" y2="0.507" xlink:href="#linear-gradient"/>
  </defs>
  <g id="Group_1" data-name="Group 1" transform="translate(-13.032 -103.607)">
    <path id="Path_2" data-name="Path 2" d="M353.862,146.126l-6.2,14.778a5.4,5.4,0,0,1-.4.938,7.442,7.442,0,0,1-.8.879c-.288-.275-.691-.51-.848-.836-1.424-3.04-2.8-6.1-4.2-9.152-1.254-2.742-2.5-5.488-3.773-8.222a5.9,5.9,0,0,0-3.807-3.608c3.8-1.119,7.035.3,8.663,3.794,1.7,3.661,3.366,7.341,5.047,11.01.2.436.415.864.752,1.562,1.715-4.117,3.34-7.98,4.91-11.866a1.871,1.871,0,0,0-.2-1.213c-.459-1.111-.978-2.194-1.585-3.526,1.57,0,2.922-.079,4.255.048.367.036.787.637.986,1.068,2.158,4.63,4.273,9.277,6.4,13.919.2.436.413.864.747,1.562,1.307-3.114,2.512-5.988,3.72-8.862.94-2.242,1.868-4.489,2.836-6.721a6.532,6.532,0,0,1,.79-1.108l.357.2a8.925,8.925,0,0,1-.293,1.019q-4.148,9.881-8.322,19.752a5.89,5.89,0,0,1-.892,1.167,5.406,5.406,0,0,1-.971-1.091c-2.156-4.632-4.27-9.28-6.4-13.922C354.428,147.273,354.206,146.834,353.862,146.126Z" transform="translate(-239.06 -27.513)" fill="url(#linear-gradient)"/>
    <path id="Path_3" data-name="Path 3" d="M247.573,288.646h-4.609v-4.189l-.321-.135c-.326.426-.65.854-.981,1.274-3.544,4.523-8.505,4.67-12.1.176-4.023-5.03-3.87-14.014,3.259-17.96,3.312-1.842,6.625-1.529,9.937.51.061-.28.1-.451.138-.622s.069-.369.115-.606h4.561Zm-4.678-12.266c0-1.9.046-3.794-.031-5.69a2.217,2.217,0,0,0-.645-1.491c-2.757-2.255-7.588-2.38-9.527,1.784a14.669,14.669,0,0,0-.42,11.364,5.625,5.625,0,0,0,9.15,2.1,3.66,3.66,0,0,0,1.5-3.256C242.79,279.591,242.895,277.978,242.895,276.38Z" transform="translate(-159.385 -121.459)" fill="url(#linear-gradient-2)"/>
    <path id="Path_4" data-name="Path 4" d="M350.206,288.781H345.7v-1.567c0-4.288.1-8.579-.051-12.862a11.185,11.185,0,0,0-1.147-4.586,3.345,3.345,0,0,0-5.223-1.226,27.754,27.754,0,0,0-3.977,3.822,2.631,2.631,0,0,0-.392,1.636c-.028,4.385-.015,8.773-.015,13.158v1.631H330.18V272.01c0-2.533-.831-3.733-3.17-4.882h7.843v4.311c.726-.719,1.223-1.21,1.722-1.7a9.042,9.042,0,0,1,7.356-2.933,6.622,6.622,0,0,1,6.37,6.609c.209,5.009.059,10.034.056,15.051C350.367,288.544,350.285,288.625,350.206,288.781Z" transform="translate(-233.978 -121.592)" fill="url(#linear-gradient-3)"/>
    <path id="Path_5" data-name="Path 5" d="M132.49,134.749c.148-.53.27-1.065.448-1.585q4.151-12.138,8.316-24.274c.094-.275.2-.548.283-.826.693-2.27.11-3.488-2.293-4.4a30.309,30.309,0,0,1,4.25.036c2.158.321,3.33,1.893,4.013,3.822,1.274,3.621,2.5,7.262,3.738,10.895q2.487,7.315,4.958,14.635c.183.543.308,1.1.51,1.806-1.656,0-3.165.076-4.653-.054-.377-.033-.859-.668-1.019-1.121q-2.293-6.535-4.467-13.112a1.407,1.407,0,0,0-1.636-1.185c-1.75.092-3.511.076-5.264,0a1.323,1.323,0,0,0-1.544,1.093c-1.447,4.385-2.943,8.752-4.446,13.117a9.057,9.057,0,0,1-.724,1.335Zm9.833-26.5-3.463,10.192h6.928Z" transform="translate(-89.021)" fill="url(#linear-gradient-4)"/>
    <path id="Path_6" data-name="Path 6" d="M239.3,150.693c-.071-6.077,5.037-11.066,11.466-11.211a11.481,11.481,0,0,1,11.779,11.236c.051,6.036-5.185,11.137-11.509,11.211A11.386,11.386,0,0,1,239.3,150.693Zm18.524.27c-.13-3.137-.693-6.069-2.854-8.436-2.4-2.635-5.583-2.652-8.041-.092-3.865,4.028-3.863,12.485,0,16.526a5.114,5.114,0,0,0,7.848.079C256.983,156.78,257.671,153.936,257.821,150.963Z" transform="translate(-168.614 -26.732)" fill="url(#linear-gradient-5)"/>
    <path id="Path_7" data-name="Path 7" d="M14.089,185.3a7.2,7.2,0,0,1-.268-7.076c1.829-4.117,5.585-5.891,10.551-5.009,4.222.752,7.7,3,10.989,5.544,3.738,2.889,7.226,6.191,11.7,7.916a23.441,23.441,0,0,0,7.063,1.57c4.525.255,9.073.064,13.611.084a6.69,6.69,0,0,1,1.315.255c-.033.183-.064.367-.094.55H59.465v11.642H54.711V189.383c-2.683-.4-5.213-.619-7.667-1.175-5.539-1.256-9.937-4.586-14.2-8.12a46.75,46.75,0,0,0-7.366-5.211,7.711,7.711,0,0,0-8.477.347,8.11,8.11,0,0,0-3.343,7.672C13.707,183.584,13.9,184.259,14.089,185.3Z" transform="translate(0 -51.706)" fill="url(#linear-gradient-6)"/>
    <path id="Path_8" data-name="Path 8" d="M440.788,290.036h-4.563c-.025-.522-.076-1.04-.076-1.554,0-5.009-.048-10.021.015-15.033.031-2.426-.81-4.151-3.233-4.989h7.858Z" transform="translate(-312.91 -122.849)" fill="url(#linear-gradient-7)"/>
    <path id="Path_9" data-name="Path 9" d="M176.89,286.168c3.312-.471,4.66.65,4.668,3.855v13.1H176.89Z" transform="translate(-122.108 -135.969)" fill="url(#linear-gradient-8)"/>
    <path id="Path_10" data-name="Path 10" d="M449.092,234.676a3.24,3.24,0,0,1-3.165,3.027,3.185,3.185,0,0,1-2.958-3.223,3.059,3.059,0,1,1,6.115.2Z" transform="translate(-320.391 -95.32)" fill="url(#linear-gradient-9)"/>
  </g>
</svg>
